<?xml version="1.0" encoding="UTF-8" standalone="no"?><svg xmlns="http://www.w3.org/2000/svg" xmlns:xlink="http://www.w3.org/1999/xlink" contentScriptType="application/ecmascript" contentStyleType="text/css" height="424px" preserveAspectRatio="none" style="width:366px;height:424px;" version="1.1" viewBox="0 0 366 424" width="366px" zoomAndPan="magnify"><defs><filter height="300%" id="f4vzrwvyeqqrk" width="300%" x="-1" y="-1"><feGaussianBlur result="blurOut" stdDeviation="2.0"/><feColorMatrix in="blurOut" result="blurOut2" type="matrix" values="0 0 0 0 0 0 0 0 0 0 0 0 0 0 0 0 0 0 .4 0"/><feOffset dx="4.0" dy="4.0" in="blurOut2" result="blurOut3"/><feBlend in="SourceGraphic" in2="blurOut3" mode="normal"/></filter></defs><g><!--class Order--><rect fill="#FEFECE" filter="url(#f4vzrwvyeqqrk)" height="110.6699" id="Order" style="stroke: #A80036; stroke-width: 1.5;" width="120" x="120.5" y="8"/><ellipse cx="161.15" cy="24" fill="#ADD1B2" rx="11" ry="11" style="stroke: #A80036; stroke-width: 1.0;"/><path d="M165.275,27.9531 Q164.9156,28.5781 164.0719,29.2188 Q162.6656,30.2344 159.9313,30.2344 Q157.7438,30.2344 156.275,28.7656 Q154.5719,27.0625 154.5719,23.875 Q154.5719,20.9375 156.2594,19.1406 Q157.8063,17.5156 160.025,17.5156 Q161.9,17.5156 162.8844,17.8125 Q163.8688,18.1094 163.8688,18.1094 Q163.8688,18.1094 163.8688,17.5469 L164.8844,17.4531 L165.0406,21.5156 L163.7125,21.6406 Q162.9,18.0469 160.1656,18.0469 Q160.1656,18.0469 159.5719,18.3281 Q158.6656,18.6719 158.15,19.2188 Q156.775,20.7656 156.7594,23.9063 Q156.7438,26.6875 158.275,28.25 Q159.5719,29.5781 160.4,29.5781 Q162.4313,29.5781 164.6188,27.0156 L165.275,27.9531 Z "/><text fill="#000000" font-family="sans-serif" font-size="12" lengthAdjust="spacingAndGlyphs" textLength="31" x="180.85" y="29.9092">Order</text><line style="stroke: #A80036; stroke-width: 1.5;" x1="121.5" x2="239.5" y1="40" y2="40"/><polygon fill="none" points="131.5,48.3337,135.5,52.3337,131.5,56.3337,127.5,52.3337" style="stroke: #B38D22; stroke-width: 1.0;"/><text fill="#000000" font-family="sans-serif" font-size="11" lengthAdjust="spacingAndGlyphs" textLength="36" x="140.5" y="57.2505">OrderId</text><polygon fill="none" points="131.5,64.0012,135.5,68.0012,131.5,72.0012,127.5,68.0012" style="stroke: #B38D22; stroke-width: 1.0;"/><text fill="#000000" font-family="sans-serif" font-size="11" lengthAdjust="spacingAndGlyphs" textLength="60" x="140.5" y="72.918">OriginalPrice</text><line style="stroke: #A80036; stroke-width: 1.5;" x1="121.5" x2="239.5" y1="79.335" y2="79.335"/><ellipse cx="131.5" cy="92.6687" fill="#84BE84" rx="3" ry="3" style="stroke: #038048; stroke-width: 1.0;"/><text fill="#000000" font-family="sans-serif" font-size="11" lengthAdjust="spacingAndGlyphs" textLength="36" x="140.5" y="96.5854">Order()</text><ellipse cx="131.5" cy="108.3362" fill="#84BE84" rx="3" ry="3" style="stroke: #038048; stroke-width: 1.0;"/><text fill="#000000" font-family="sans-serif" font-size="11" lengthAdjust="spacingAndGlyphs" textLength="94" x="140.5" y="112.2529">CalculateDiscount()</text><!--class IDiscount--><rect fill="#FEFECE" filter="url(#f4vzrwvyeqqrk)" height="79.335" id="IDiscount" style="stroke: #A80036; stroke-width: 1.5;" width="157" x="102" y="179"/><ellipse cx="150.25" cy="195" fill="#B4A7E5" rx="11" ry="11" style="stroke: #A80036; stroke-width: 1.0;"/><path d="M153.25,201.0156 L147.5,201.0156 L147.5,200.6875 Q148.5938,200.625 148.9844,200.2656 Q149.375,199.9063 149.375,198.9063 L149.375,190.9375 Q149.375,189.9063 148.9531,189.5313 Q148.5938,189.2031 147.5,189.1406 L147.5,188.8125 L153.25,188.8125 L153.25,189.1406 Q152.2344,189.1875 151.8594,189.4688 Q151.3594,189.875 151.3594,190.9375 L151.3594,198.9063 Q151.3594,199.9531 151.8594,200.3281 Q152.2344,200.6406 153.25,200.6875 L153.25,201.0156 Z "/><text fill="#000000" font-family="sans-serif" font-size="12" font-style="italic" lengthAdjust="spacingAndGlyphs" textLength="52" x="170.75" y="200.9092">IDiscount</text><line style="stroke: #A80036; stroke-width: 1.5;" x1="103" x2="258" y1="211" y2="211"/><line style="stroke: #A80036; stroke-width: 1.5;" x1="103" x2="258" y1="219" y2="219"/><ellipse cx="113" cy="232.3337" fill="#84BE84" rx="3" ry="3" style="stroke: #038048; stroke-width: 1.0;"/><text fill="#000000" font-family="sans-serif" font-size="11" lengthAdjust="spacingAndGlyphs" textLength="68" x="122" y="236.2505">SetCondition()</text><ellipse cx="113" cy="248.0012" fill="#84BE84" rx="3" ry="3" style="stroke: #038048; stroke-width: 1.0;"/><text fill="#000000" font-family="sans-serif" font-size="11" lengthAdjust="spacingAndGlyphs" textLength="131" x="122" y="251.918">CalculateDiscountAmount()</text><!--class FullDiscount--><rect fill="#FEFECE" filter="url(#f4vzrwvyeqqrk)" height="95.0024" id="FullDiscount" style="stroke: #A80036; stroke-width: 1.5;" width="157" x="6" y="318"/><ellipse cx="46.2" cy="334" fill="#ADD1B2" rx="11" ry="11" style="stroke: #A80036; stroke-width: 1.0;"/><path d="M50.325,337.9531 Q49.9656,338.5781 49.1219,339.2188 Q47.7156,340.2344 44.9813,340.2344 Q42.7938,340.2344 41.325,338.7656 Q39.6219,337.0625 39.6219,333.875 Q39.6219,330.9375 41.3094,329.1406 Q42.8563,327.5156 45.075,327.5156 Q46.95,327.5156 47.9344,327.8125 Q48.9188,328.1094 48.9188,328.1094 Q48.9188,328.1094 48.9188,327.5469 L49.9344,327.4531 L50.0906,331.5156 L48.7625,331.6406 Q47.95,328.0469 45.2156,328.0469 Q45.2156,328.0469 44.6219,328.3281 Q43.7156,328.6719 43.2,329.2188 Q41.825,330.7656 41.8094,333.9063 Q41.7938,336.6875 43.325,338.25 Q44.6219,339.5781 45.45,339.5781 Q47.4813,339.5781 49.6688,337.0156 L50.325,337.9531 Z "/><text fill="#000000" font-family="sans-serif" font-size="12" lengthAdjust="spacingAndGlyphs" textLength="69" x="65.8" y="339.9092">FullDiscount</text><line style="stroke: #A80036; stroke-width: 1.5;" x1="7" x2="162" y1="350" y2="350"/><rect fill="none" height="6" style="stroke: #C82930; stroke-width: 1.0;" width="6" x="14" y="360.3337"/><text fill="#000000" font-family="sans-serif" font-size="11" lengthAdjust="spacingAndGlyphs" textLength="51" x="26" y="367.2505">fullAmount</text><line style="stroke: #A80036; stroke-width: 1.5;" x1="7" x2="162" y1="373.6675" y2="373.6675"/><ellipse cx="17" cy="387.0012" fill="#84BE84" rx="3" ry="3" style="stroke: #038048; stroke-width: 1.0;"/><text fill="#000000" font-family="sans-serif" font-size="11" lengthAdjust="spacingAndGlyphs" textLength="68" x="26" y="390.918">SetCondition()</text><ellipse cx="17" cy="402.6687" fill="#84BE84" rx="3" ry="3" style="stroke: #038048; stroke-width: 1.0;"/><text fill="#000000" font-family="sans-serif" font-size="11" lengthAdjust="spacingAndGlyphs" textLength="131" x="26" y="406.5854">CalculateDiscountAmount()</text><!--class DiscountForAllItems--><rect fill="#FEFECE" filter="url(#f4vzrwvyeqqrk)" height="95.0024" id="DiscountForAllItems" style="stroke: #A80036; stroke-width: 1.5;" width="157" x="198" y="318"/><ellipse cx="219.3" cy="334" fill="#ADD1B2" rx="11" ry="11" style="stroke: #A80036; stroke-width: 1.0;"/><path d="M223.425,337.9531 Q223.0656,338.5781 222.2219,339.2188 Q220.8156,340.2344 218.0813,340.2344 Q215.8938,340.2344 214.425,338.7656 Q212.7219,337.0625 212.7219,333.875 Q212.7219,330.9375 214.4094,329.1406 Q215.9563,327.5156 218.175,327.5156 Q220.05,327.5156 221.0344,327.8125 Q222.0188,328.1094 222.0188,328.1094 Q222.0188,328.1094 222.0188,327.5469 L223.0344,327.4531 L223.1906,331.5156 L221.8625,331.6406 Q221.05,328.0469 218.3156,328.0469 Q218.3156,328.0469 217.7219,328.3281 Q216.8156,328.6719 216.3,329.2188 Q214.925,330.7656 214.9094,333.9063 Q214.8938,336.6875 216.425,338.25 Q217.7219,339.5781 218.55,339.5781 Q220.5813,339.5781 222.7688,337.0156 L223.425,337.9531 Z "/><text fill="#000000" font-family="sans-serif" font-size="12" lengthAdjust="spacingAndGlyphs" textLength="111" x="234.7" y="339.9092">DiscountForAllItems</text><line style="stroke: #A80036; stroke-width: 1.5;" x1="199" x2="354" y1="350" y2="350"/><rect fill="none" height="6" style="stroke: #C82930; stroke-width: 1.0;" width="6" x="206" y="360.3337"/><text fill="#000000" font-family="sans-serif" font-size="11" lengthAdjust="spacingAndGlyphs" textLength="79" x="218" y="367.2505">percentDiscount</text><line style="stroke: #A80036; stroke-width: 1.5;" x1="199" x2="354" y1="373.6675" y2="373.6675"/><ellipse cx="209" cy="387.0012" fill="#84BE84" rx="3" ry="3" style="stroke: #038048; stroke-width: 1.0;"/><text fill="#000000" font-family="sans-serif" font-size="11" lengthAdjust="spacingAndGlyphs" textLength="68" x="218" y="390.918">SetCondition()</text><ellipse cx="209" cy="402.6687" fill="#84BE84" rx="3" ry="3" style="stroke: #038048; stroke-width: 1.0;"/><text fill="#000000" font-family="sans-serif" font-size="11" lengthAdjust="spacingAndGlyphs" textLength="131" x="218" y="406.5854">CalculateDiscountAmount()</text><!--link IDiscount to FullDiscount--><path d="M143.46,275.446 C134.196,289.438 124.358,304.298 115.426,317.7886 " fill="none" id="IDiscount-FullDiscount" style="stroke: #A80036; stroke-width: 1.0; stroke-dasharray: 7.0,7.0;"/><polygon fill="none" points="137.896,271.169,154.774,258.357,149.57,278.898,137.896,271.169" style="stroke: #A80036; stroke-width: 1.0;"/><!--link IDiscount to DiscountForAllItems--><path d="M217.54,275.446 C226.804,289.438 236.642,304.298 245.574,317.7886 " fill="none" id="IDiscount-DiscountForAllItems" style="stroke: #A80036; stroke-width: 1.0; stroke-dasharray: 7.0,7.0;"/><polygon fill="none" points="211.43,278.898,206.226,258.357,223.104,271.169,211.43,278.898" style="stroke: #A80036; stroke-width: 1.0;"/><!--link Order to IDiscount--><path d="M180.5,132.486 C180.5,143.669 180.5,155.098 180.5,165.801 " fill="none" id="Order-IDiscount" style="stroke: #A80036; stroke-width: 1.0;"/><polygon fill="#A80036" points="180.5,178.896,184.5,169.896,180.5,173.896,176.5,169.896,180.5,178.896" style="stroke: #A80036; stroke-width: 1.0;"/><line style="stroke: #A80036; stroke-width: 1.0;" x1="180.5" x2="180.5" y1="173.896" y2="165.896"/><polygon fill="#FFFFFF" points="180.5,119.304,176.5,125.304,180.5,131.304,184.5,125.304,180.5,119.304" style="stroke: #A80036; stroke-width: 1.0;"/><!--
@startuml Homework07ClassDiagram

class Order {
    # OrderId
    # OriginalPrice
    + Order()
    + CalculateDiscount()
}

interface IDiscount{
    + SetCondition()
    + CalculateDiscountAmount()
}

class FullDiscount{
    - fullAmount
    + SetCondition()
    + CalculateDiscountAmount()
}

class DiscountForAllItems{
    - percentDiscount
    + SetCondition()
    + CalculateDiscountAmount()
}

IDiscount <|.. FullDiscount
IDiscount <|.. DiscountForAllItems
Order o- -> IDiscount

@enduml

PlantUML version 1.2017.20(Tue Dec 12 00:57:05 CST 2017)
(GPL source distribution)
Java Runtime: Java(TM) SE Runtime Environment
JVM: Java HotSpot(TM) 64-Bit Server VM
Java Version: 9.0.1+11
Operating System: Windows 10
OS Version: 10.0
Default Encoding: MS950
Language: zh
Country: TW
--></g></svg>