<?xml version="1.0" encoding="UTF-8" standalone="no"?><svg xmlns="http://www.w3.org/2000/svg" xmlns:xlink="http://www.w3.org/1999/xlink" contentScriptType="application/ecmascript" contentStyleType="text/css" height="300px" preserveAspectRatio="none" style="width:712px;height:300px;" version="1.1" viewBox="0 0 712 300" width="712px" zoomAndPan="magnify"><defs><filter height="300%" id="f11befq2kck2s5" width="300%" x="-1" y="-1"><feGaussianBlur result="blurOut" stdDeviation="2.0"/><feColorMatrix in="blurOut" result="blurOut2" type="matrix" values="0 0 0 0 0 0 0 0 0 0 0 0 0 0 0 0 0 0 .4 0"/><feOffset dx="4.0" dy="4.0" in="blurOut2" result="blurOut3"/><feBlend in="SourceGraphic" in2="blurOut3" mode="normal"/></filter></defs><g><!--class PrintWord--><rect fill="#FEFECE" filter="url(#f11befq2kck2s5)" height="126.3374" id="PrintWord" style="stroke: #A80036; stroke-width: 1.5;" width="86" x="211.5" y="8"/><ellipse cx="226.5" cy="24" fill="#ADD1B2" rx="11" ry="11" style="stroke: #A80036; stroke-width: 1.0;"/><path d="M230.625,27.9531 Q230.2656,28.5781 229.4219,29.2188 Q228.0156,30.2344 225.2813,30.2344 Q223.0938,30.2344 221.625,28.7656 Q219.9219,27.0625 219.9219,23.875 Q219.9219,20.9375 221.6094,19.1406 Q223.1563,17.5156 225.375,17.5156 Q227.25,17.5156 228.2344,17.8125 Q229.2188,18.1094 229.2188,18.1094 Q229.2188,18.1094 229.2188,17.5469 L230.2344,17.4531 L230.3906,21.5156 L229.0625,21.6406 Q228.25,18.0469 225.5156,18.0469 Q225.5156,18.0469 224.9219,18.3281 Q224.0156,18.6719 223.5,19.2188 Q222.125,20.7656 222.1094,23.9063 Q222.0938,26.6875 223.625,28.25 Q224.9219,29.5781 225.75,29.5781 Q227.7813,29.5781 229.9688,27.0156 L230.625,27.9531 Z "/><text fill="#000000" font-family="sans-serif" font-size="12" lengthAdjust="spacingAndGlyphs" textLength="54" x="240.5" y="29.9092">PrintWord</text><line style="stroke: #A80036; stroke-width: 1.5;" x1="212.5" x2="296.5" y1="40" y2="40"/><rect fill="none" height="6" style="stroke: #C82930; stroke-width: 1.0;" width="6" x="219.5" y="50.3337"/><text fill="#000000" font-family="sans-serif" font-size="11" lengthAdjust="spacingAndGlyphs" textLength="57" x="231.5" y="57.2505">Implementor</text><line style="stroke: #A80036; stroke-width: 1.5;" x1="212.5" x2="296.5" y1="63.6675" y2="63.6675"/><ellipse cx="222.5" cy="77.0012" fill="#84BE84" rx="3" ry="3" style="stroke: #038048; stroke-width: 1.0;"/><text fill="#000000" font-family="sans-serif" font-size="11" lengthAdjust="spacingAndGlyphs" textLength="34" x="231.5" y="80.918">Open()</text><ellipse cx="222.5" cy="92.6687" fill="#84BE84" rx="3" ry="3" style="stroke: #038048; stroke-width: 1.0;"/><text fill="#000000" font-family="sans-serif" font-size="11" lengthAdjust="spacingAndGlyphs" textLength="29" x="231.5" y="96.5854">Print()</text><ellipse cx="222.5" cy="108.3362" fill="#84BE84" rx="3" ry="3" style="stroke: #038048; stroke-width: 1.0;"/><text fill="#000000" font-family="sans-serif" font-size="11" lengthAdjust="spacingAndGlyphs" textLength="35" x="231.5" y="112.2529">Close()</text><ellipse cx="222.5" cy="124.0037" fill="#84BE84" rx="3" ry="3" style="stroke: #038048; stroke-width: 1.0;"/><text fill="#000000" font-family="sans-serif" font-size="11" lengthAdjust="spacingAndGlyphs" textLength="37" x="231.5" y="127.9204">Show()</text><!--class PrintSpecifiedTimes--><rect fill="#FEFECE" filter="url(#f11befq2kck2s5)" height="63.6675" id="PrintSpecifiedTimes" style="stroke: #A80036; stroke-width: 1.5;" width="143" x="6" y="209.5"/><ellipse cx="21" cy="225.5" fill="#ADD1B2" rx="11" ry="11" style="stroke: #A80036; stroke-width: 1.0;"/><path d="M25.125,229.4531 Q24.7656,230.0781 23.9219,230.7188 Q22.5156,231.7344 19.7813,231.7344 Q17.5938,231.7344 16.125,230.2656 Q14.4219,228.5625 14.4219,225.375 Q14.4219,222.4375 16.1094,220.6406 Q17.6563,219.0156 19.875,219.0156 Q21.75,219.0156 22.7344,219.3125 Q23.7188,219.6094 23.7188,219.6094 Q23.7188,219.6094 23.7188,219.0469 L24.7344,218.9531 L24.8906,223.0156 L23.5625,223.1406 Q22.75,219.5469 20.0156,219.5469 Q20.0156,219.5469 19.4219,219.8281 Q18.5156,220.1719 18,220.7188 Q16.625,222.2656 16.6094,225.4063 Q16.5938,228.1875 18.125,229.75 Q19.4219,231.0781 20.25,231.0781 Q22.2813,231.0781 24.4688,228.5156 L25.125,229.4531 Z "/><text fill="#000000" font-family="sans-serif" font-size="12" lengthAdjust="spacingAndGlyphs" textLength="111" x="35" y="231.4092">PrintSpecifiedTimes</text><line style="stroke: #A80036; stroke-width: 1.5;" x1="7" x2="148" y1="241.5" y2="241.5"/><line style="stroke: #A80036; stroke-width: 1.5;" x1="7" x2="148" y1="249.5" y2="249.5"/><ellipse cx="17" cy="262.8337" fill="#84BE84" rx="3" ry="3" style="stroke: #038048; stroke-width: 1.0;"/><text fill="#000000" font-family="sans-serif" font-size="11" lengthAdjust="spacingAndGlyphs" textLength="92" x="26" y="266.7505">PrintMultipleTimes()</text><!--class PrintRandomTimes--><rect fill="#FEFECE" filter="url(#f11befq2kck2s5)" height="63.6675" id="PrintRandomTimes" style="stroke: #A80036; stroke-width: 1.5;" width="140" x="184.5" y="209.5"/><ellipse cx="199.5" cy="225.5" fill="#ADD1B2" rx="11" ry="11" style="stroke: #A80036; stroke-width: 1.0;"/><path d="M203.625,229.4531 Q203.2656,230.0781 202.4219,230.7188 Q201.0156,231.7344 198.2813,231.7344 Q196.0938,231.7344 194.625,230.2656 Q192.9219,228.5625 192.9219,225.375 Q192.9219,222.4375 194.6094,220.6406 Q196.1563,219.0156 198.375,219.0156 Q200.25,219.0156 201.2344,219.3125 Q202.2188,219.6094 202.2188,219.6094 Q202.2188,219.6094 202.2188,219.0469 L203.2344,218.9531 L203.3906,223.0156 L202.0625,223.1406 Q201.25,219.5469 198.5156,219.5469 Q198.5156,219.5469 197.9219,219.8281 Q197.0156,220.1719 196.5,220.7188 Q195.125,222.2656 195.1094,225.4063 Q195.0938,228.1875 196.625,229.75 Q197.9219,231.0781 198.75,231.0781 Q200.7813,231.0781 202.9688,228.5156 L203.625,229.4531 Z "/><text fill="#000000" font-family="sans-serif" font-size="12" lengthAdjust="spacingAndGlyphs" textLength="108" x="213.5" y="231.4092">PrintRandomTimes</text><line style="stroke: #A80036; stroke-width: 1.5;" x1="185.5" x2="323.5" y1="241.5" y2="241.5"/><line style="stroke: #A80036; stroke-width: 1.5;" x1="185.5" x2="323.5" y1="249.5" y2="249.5"/><ellipse cx="195.5" cy="262.8337" fill="#84BE84" rx="3" ry="3" style="stroke: #038048; stroke-width: 1.0;"/><text fill="#000000" font-family="sans-serif" font-size="11" lengthAdjust="spacingAndGlyphs" textLength="68" x="204.5" y="266.7505">RandomPrint()</text><!--class AbstractPrintImplementor--><rect fill="#FEFECE" filter="url(#f11befq2kck2s5)" height="95.0024" id="AbstractPrintImplementor" style="stroke: #A80036; stroke-width: 1.5;" width="173" x="353" y="23.5"/><ellipse cx="368" cy="39.5" fill="#A9DCDF" rx="11" ry="11" style="stroke: #A80036; stroke-width: 1.0;"/><path d="M374.2344,44.2656 L369.3125,44.2656 L369.3125,43.9375 Q369.9531,43.8906 370.2188,43.7969 Q370.6406,43.6094 370.6406,43.0938 Q370.6406,42.6875 370.3438,41.9063 L369.75,40.2656 L366.1094,40.2656 L365.2813,42.375 Q365.1406,42.7031 365.1406,43.0938 Q365.1406,43.625 365.5469,43.7969 Q365.7188,43.8906 366.2344,43.9375 L366.2344,44.2656 L362.2031,44.2656 L362.2031,43.9375 Q362.4219,43.8906 362.625,43.8438 Q362.8281,43.7969 363.0156,43.5625 Q363.4844,42.9688 364.2188,40.9375 L367.5781,31.8281 L368.6406,31.8281 L372.5781,42.2969 Q372.9375,43.2969 373.375,43.6563 Q373.625,43.8438 374.2344,43.9375 L374.2344,44.2656 Z M369.5313,39.6406 L367.75,34.4063 L366.25,39.6406 L369.5313,39.6406 Z "/><text fill="#000000" font-family="sans-serif" font-size="12" font-style="italic" lengthAdjust="spacingAndGlyphs" textLength="141" x="382" y="45.4092">AbstractPrintImplementor</text><line style="stroke: #A80036; stroke-width: 1.5;" x1="354" x2="525" y1="55.5" y2="55.5"/><line style="stroke: #A80036; stroke-width: 1.5;" x1="354" x2="525" y1="63.5" y2="63.5"/><text fill="#000000" font-family="sans-serif" font-size="11" font-style="italic" lengthAdjust="spacingAndGlyphs" textLength="31" x="359" y="80.7505">Print()</text><text fill="#000000" font-family="sans-serif" font-size="11" font-style="italic" lengthAdjust="spacingAndGlyphs" textLength="35" x="359" y="96.418">Open()</text><text fill="#000000" font-family="sans-serif" font-size="11" font-style="italic" lengthAdjust="spacingAndGlyphs" textLength="37" x="359" y="112.0854">Close()</text><!--class PrintStringImplementor--><rect fill="#FEFECE" filter="url(#f11befq2kck2s5)" height="95.0024" id="PrintStringImplementor" style="stroke: #A80036; stroke-width: 1.5;" width="159" x="360" y="194"/><ellipse cx="375" cy="210" fill="#ADD1B2" rx="11" ry="11" style="stroke: #A80036; stroke-width: 1.0;"/><path d="M379.125,213.9531 Q378.7656,214.5781 377.9219,215.2188 Q376.5156,216.2344 373.7813,216.2344 Q371.5938,216.2344 370.125,214.7656 Q368.4219,213.0625 368.4219,209.875 Q368.4219,206.9375 370.1094,205.1406 Q371.6563,203.5156 373.875,203.5156 Q375.75,203.5156 376.7344,203.8125 Q377.7188,204.1094 377.7188,204.1094 Q377.7188,204.1094 377.7188,203.5469 L378.7344,203.4531 L378.8906,207.5156 L377.5625,207.6406 Q376.75,204.0469 374.0156,204.0469 Q374.0156,204.0469 373.4219,204.3281 Q372.5156,204.6719 372,205.2188 Q370.625,206.7656 370.6094,209.9063 Q370.5938,212.6875 372.125,214.25 Q373.4219,215.5781 374.25,215.5781 Q376.2813,215.5781 378.4688,213.0156 L379.125,213.9531 Z "/><text fill="#000000" font-family="sans-serif" font-size="12" lengthAdjust="spacingAndGlyphs" textLength="127" x="389" y="215.9092">PrintStringImplementor</text><line style="stroke: #A80036; stroke-width: 1.5;" x1="361" x2="518" y1="226" y2="226"/><line style="stroke: #A80036; stroke-width: 1.5;" x1="361" x2="518" y1="234" y2="234"/><ellipse cx="371" cy="247.3337" fill="#84BE84" rx="3" ry="3" style="stroke: #038048; stroke-width: 1.0;"/><text fill="#000000" font-family="sans-serif" font-size="11" lengthAdjust="spacingAndGlyphs" textLength="29" x="380" y="251.2505">Print()</text><ellipse cx="371" cy="263.0012" fill="#84BE84" rx="3" ry="3" style="stroke: #038048; stroke-width: 1.0;"/><text fill="#000000" font-family="sans-serif" font-size="11" lengthAdjust="spacingAndGlyphs" textLength="34" x="380" y="266.918">Open()</text><ellipse cx="371" cy="278.6687" fill="#84BE84" rx="3" ry="3" style="stroke: #038048; stroke-width: 1.0;"/><text fill="#000000" font-family="sans-serif" font-size="11" lengthAdjust="spacingAndGlyphs" textLength="35" x="380" y="282.5854">Close()</text><!--class PrintFileImplementor--><rect fill="#FEFECE" filter="url(#f11befq2kck2s5)" height="95.0024" id="PrintFileImplementor" style="stroke: #A80036; stroke-width: 1.5;" width="147" x="554" y="194"/><ellipse cx="569" cy="210" fill="#ADD1B2" rx="11" ry="11" style="stroke: #A80036; stroke-width: 1.0;"/><path d="M573.125,213.9531 Q572.7656,214.5781 571.9219,215.2188 Q570.5156,216.2344 567.7813,216.2344 Q565.5938,216.2344 564.125,214.7656 Q562.4219,213.0625 562.4219,209.875 Q562.4219,206.9375 564.1094,205.1406 Q565.6563,203.5156 567.875,203.5156 Q569.75,203.5156 570.7344,203.8125 Q571.7188,204.1094 571.7188,204.1094 Q571.7188,204.1094 571.7188,203.5469 L572.7344,203.4531 L572.8906,207.5156 L571.5625,207.6406 Q570.75,204.0469 568.0156,204.0469 Q568.0156,204.0469 567.4219,204.3281 Q566.5156,204.6719 566,205.2188 Q564.625,206.7656 564.6094,209.9063 Q564.5938,212.6875 566.125,214.25 Q567.4219,215.5781 568.25,215.5781 Q570.2813,215.5781 572.4688,213.0156 L573.125,213.9531 Z "/><text fill="#000000" font-family="sans-serif" font-size="12" lengthAdjust="spacingAndGlyphs" textLength="115" x="583" y="215.9092">PrintFileImplementor</text><line style="stroke: #A80036; stroke-width: 1.5;" x1="555" x2="700" y1="226" y2="226"/><line style="stroke: #A80036; stroke-width: 1.5;" x1="555" x2="700" y1="234" y2="234"/><ellipse cx="565" cy="247.3337" fill="#84BE84" rx="3" ry="3" style="stroke: #038048; stroke-width: 1.0;"/><text fill="#000000" font-family="sans-serif" font-size="11" lengthAdjust="spacingAndGlyphs" textLength="29" x="574" y="251.2505">Print()</text><ellipse cx="565" cy="263.0012" fill="#84BE84" rx="3" ry="3" style="stroke: #038048; stroke-width: 1.0;"/><text fill="#000000" font-family="sans-serif" font-size="11" lengthAdjust="spacingAndGlyphs" textLength="34" x="574" y="266.918">Open()</text><ellipse cx="565" cy="278.6687" fill="#84BE84" rx="3" ry="3" style="stroke: #038048; stroke-width: 1.0;"/><text fill="#000000" font-family="sans-serif" font-size="11" lengthAdjust="spacingAndGlyphs" textLength="35" x="574" y="282.5854">Close()</text><!--link PrintWord to AbstractPrintImplementor--><path d="M311.192,71 C325.099,71 339.005,71 352.911,71 " fill="none" id="PrintWord-AbstractPrintImplementor" style="stroke: #A80036; stroke-width: 1.0;"/><polygon fill="#FFFFFF" points="297.859,71,303.859,75,309.859,71,303.859,67,297.859,71" style="stroke: #A80036; stroke-width: 1.0;"/><!--link PrintWord to PrintSpecifiedTimes--><path d="M196.699,127.026 C167.961,154.383 134.295,186.433 110.085,209.4803 " fill="none" id="PrintWord-PrintSpecifiedTimes" style="stroke: #A80036; stroke-width: 1.0;"/><polygon fill="none" points="191.889,121.94,211.201,113.22,201.542,132.08,191.889,121.94" style="stroke: #A80036; stroke-width: 1.0;"/><!--link PrintWord to PrintRandomTimes--><path d="M254.5,154.387 C254.5,173.912 254.5,193.5699 254.5,209.1644 " fill="none" id="PrintWord-PrintRandomTimes" style="stroke: #A80036; stroke-width: 1.0;"/><polygon fill="none" points="247.5,154.264,254.5,134.264,261.5,154.264,247.5,154.264" style="stroke: #A80036; stroke-width: 1.0;"/><!--link AbstractPrintImplementor to PrintStringImplementor--><path d="M439.5,138.988 C439.5,157.352 439.5,176.86 439.5,193.8151 " fill="none" id="AbstractPrintImplementor-PrintStringImplementor" style="stroke: #A80036; stroke-width: 1.0;"/><polygon fill="none" points="432.5,138.937,439.5,118.937,446.5,138.937,432.5,138.937" style="stroke: #A80036; stroke-width: 1.0;"/><!--link AbstractPrintImplementor to PrintFileImplementor--><path d="M507.03,132.526 C529.541,152.702 554.257,174.854 575.412,193.8151 " fill="none" id="AbstractPrintImplementor-PrintFileImplementor" style="stroke: #A80036; stroke-width: 1.0;"/><polygon fill="none" points="502.09,137.498,491.868,118.937,511.434,127.073,502.09,137.498" style="stroke: #A80036; stroke-width: 1.0;"/><!--
@startuml Homework08ClassDiagram

class PrintWord {
    - Implementor
    + Open()
    + Print()
    + Close()
    + Show()
}

class PrintSpecifiedTimes {
    + PrintMultipleTimes()
}

class PrintRandomTimes {
    + RandomPrint()
}

abstract class AbstractPrintImplementor {
    {abstract} Print()
    {abstract} Open()
    {abstract} Close()
}

class PrintStringImplementor {
    + Print()
    + Open()
    + Close()
}

class PrintFileImplementor {
    + Print()
    + Open()
    + Close()
}

PrintWord o-right- AbstractPrintImplementor
PrintWord <|-down- PrintSpecifiedTimes
PrintWord <|-down- PrintRandomTimes
AbstractPrintImplementor <|-down- PrintStringImplementor
AbstractPrintImplementor <|-down- PrintFileImplementor

@enduml

PlantUML version 1.2017.20(Tue Dec 12 00:57:05 CST 2017)
(GPL source distribution)
Java Runtime: Java(TM) SE Runtime Environment
JVM: Java HotSpot(TM) 64-Bit Server VM
Java Version: 9.0.1+11
Operating System: Windows 10
OS Version: 10.0
Default Encoding: MS950
Language: zh
Country: TW
--></g></svg>