<?xml version="1.0" encoding="UTF-8" standalone="no"?><svg xmlns="http://www.w3.org/2000/svg" xmlns:xlink="http://www.w3.org/1999/xlink" contentScriptType="application/ecmascript" contentStyleType="text/css" height="719px" preserveAspectRatio="none" style="width:348px;height:719px;" version="1.1" viewBox="0 0 348 719" width="348px" zoomAndPan="magnify"><defs><filter height="300%" id="fpooazpzr6ke3" width="300%" x="-1" y="-1"><feGaussianBlur result="blurOut" stdDeviation="2.0"/><feColorMatrix in="blurOut" result="blurOut2" type="matrix" values="0 0 0 0 0 0 0 0 0 0 0 0 0 0 0 0 0 0 .4 0"/><feOffset dx="4.0" dy="4.0" in="blurOut2" result="blurOut3"/><feBlend in="SourceGraphic" in2="blurOut3" mode="normal"/></filter></defs><g><!--class Program--><rect fill="#FEFECE" filter="url(#fpooazpzr6ke3)" height="63.6675" id="Program" style="stroke: #A80036; stroke-width: 1.5;" width="80" x="128" y="8"/><ellipse cx="143" cy="24" fill="#ADD1B2" rx="11" ry="11" style="stroke: #A80036; stroke-width: 1.0;"/><path d="M147.125,27.9531 Q146.7656,28.5781 145.9219,29.2188 Q144.5156,30.2344 141.7813,30.2344 Q139.5938,30.2344 138.125,28.7656 Q136.4219,27.0625 136.4219,23.875 Q136.4219,20.9375 138.1094,19.1406 Q139.6563,17.5156 141.875,17.5156 Q143.75,17.5156 144.7344,17.8125 Q145.7188,18.1094 145.7188,18.1094 Q145.7188,18.1094 145.7188,17.5469 L146.7344,17.4531 L146.8906,21.5156 L145.5625,21.6406 Q144.75,18.0469 142.0156,18.0469 Q142.0156,18.0469 141.4219,18.3281 Q140.5156,18.6719 140,19.2188 Q138.625,20.7656 138.6094,23.9063 Q138.5938,26.6875 140.125,28.25 Q141.4219,29.5781 142.25,29.5781 Q144.2813,29.5781 146.4688,27.0156 L147.125,27.9531 Z "/><text fill="#000000" font-family="sans-serif" font-size="12" lengthAdjust="spacingAndGlyphs" textLength="48" x="157" y="29.9092">Program</text><line style="stroke: #A80036; stroke-width: 1.5;" x1="129" x2="207" y1="40" y2="40"/><line style="stroke: #A80036; stroke-width: 1.5;" x1="129" x2="207" y1="48" y2="48"/><rect fill="#F24D5C" height="6" style="stroke: #C82930; stroke-width: 1.0;" width="6" x="136" y="58.3337"/><text fill="#000000" font-family="sans-serif" font-size="11" lengthAdjust="spacingAndGlyphs" textLength="30" x="148" y="65.2505">Main()</text><!--class Director--><rect fill="#FEFECE" filter="url(#fpooazpzr6ke3)" height="63.6675" id="Director" style="stroke: #A80036; stroke-width: 1.5;" width="81" x="127.5" y="132"/><ellipse cx="145.2" cy="148" fill="#ADD1B2" rx="11" ry="11" style="stroke: #A80036; stroke-width: 1.0;"/><path d="M149.325,151.9531 Q148.9656,152.5781 148.1219,153.2188 Q146.7156,154.2344 143.9813,154.2344 Q141.7938,154.2344 140.325,152.7656 Q138.6219,151.0625 138.6219,147.875 Q138.6219,144.9375 140.3094,143.1406 Q141.8563,141.5156 144.075,141.5156 Q145.95,141.5156 146.9344,141.8125 Q147.9188,142.1094 147.9188,142.1094 Q147.9188,142.1094 147.9188,141.5469 L148.9344,141.4531 L149.0906,145.5156 L147.7625,145.6406 Q146.95,142.0469 144.2156,142.0469 Q144.2156,142.0469 143.6219,142.3281 Q142.7156,142.6719 142.2,143.2188 Q140.825,144.7656 140.8094,147.9063 Q140.7938,150.6875 142.325,152.25 Q143.6219,153.5781 144.45,153.5781 Q146.4813,153.5781 148.6688,151.0156 L149.325,151.9531 Z "/><text fill="#000000" font-family="sans-serif" font-size="12" lengthAdjust="spacingAndGlyphs" textLength="43" x="159.8" y="153.9092">Director</text><line style="stroke: #A80036; stroke-width: 1.5;" x1="128.5" x2="207.5" y1="164" y2="164"/><line style="stroke: #A80036; stroke-width: 1.5;" x1="128.5" x2="207.5" y1="172" y2="172"/><ellipse cx="138.5" cy="185.3337" fill="#84BE84" rx="3" ry="3" style="stroke: #038048; stroke-width: 1.0;"/><text fill="#000000" font-family="sans-serif" font-size="11" lengthAdjust="spacingAndGlyphs" textLength="55" x="147.5" y="189.2505">Construct()</text><!--class Builder--><rect fill="#FEFECE" filter="url(#fpooazpzr6ke3)" height="142.0049" id="Builder" style="stroke: #A80036; stroke-width: 1.5;" width="121" x="107.5" y="256"/><ellipse cx="145" cy="272" fill="#A9DCDF" rx="11" ry="11" style="stroke: #A80036; stroke-width: 1.0;"/><path d="M151.2344,276.7656 L146.3125,276.7656 L146.3125,276.4375 Q146.9531,276.3906 147.2188,276.2969 Q147.6406,276.1094 147.6406,275.5938 Q147.6406,275.1875 147.3438,274.4063 L146.75,272.7656 L143.1094,272.7656 L142.2813,274.875 Q142.1406,275.2031 142.1406,275.5938 Q142.1406,276.125 142.5469,276.2969 Q142.7188,276.3906 143.2344,276.4375 L143.2344,276.7656 L139.2031,276.7656 L139.2031,276.4375 Q139.4219,276.3906 139.625,276.3438 Q139.8281,276.2969 140.0156,276.0625 Q140.4844,275.4688 141.2188,273.4375 L144.5781,264.3281 L145.6406,264.3281 L149.5781,274.7969 Q149.9375,275.7969 150.375,276.1563 Q150.625,276.3438 151.2344,276.4375 L151.2344,276.7656 Z M146.5313,272.1406 L144.75,266.9063 L143.25,272.1406 L146.5313,272.1406 Z "/><text fill="#000000" font-family="sans-serif" font-size="12" font-style="italic" lengthAdjust="spacingAndGlyphs" textLength="39" x="164" y="277.9092">Builder</text><line style="stroke: #A80036; stroke-width: 1.5;" x1="108.5" x2="227.5" y1="288" y2="288"/><polygon fill="none" points="118.5,296.3337,122.5,300.3337,118.5,304.3337,114.5,300.3337" style="stroke: #B38D22; stroke-width: 1.0;"/><text fill="#000000" font-family="sans-serif" font-size="11" lengthAdjust="spacingAndGlyphs" textLength="37" x="127.5" y="305.2505">product</text><line style="stroke: #A80036; stroke-width: 1.5;" x1="108.5" x2="227.5" y1="311.6675" y2="311.6675"/><ellipse cx="118.5" cy="325.0012" fill="#84BE84" rx="3" ry="3" style="stroke: #038048; stroke-width: 1.0;"/><text fill="#000000" font-family="sans-serif" font-size="11" lengthAdjust="spacingAndGlyphs" textLength="49" x="127.5" y="328.918">AddRam()</text><ellipse cx="118.5" cy="340.6687" fill="#84BE84" rx="3" ry="3" style="stroke: #038048; stroke-width: 1.0;"/><text fill="#000000" font-family="sans-serif" font-size="11" lengthAdjust="spacingAndGlyphs" textLength="47" x="127.5" y="344.5854">AddCpu()</text><ellipse cx="118.5" cy="356.3362" fill="#84BE84" rx="3" ry="3" style="stroke: #038048; stroke-width: 1.0;"/><text fill="#000000" font-family="sans-serif" font-size="11" lengthAdjust="spacingAndGlyphs" textLength="41" x="127.5" y="360.2529">AddHd()</text><ellipse cx="118.5" cy="372.0037" fill="#84BE84" rx="3" ry="3" style="stroke: #038048; stroke-width: 1.0;"/><text fill="#000000" font-family="sans-serif" font-size="11" lengthAdjust="spacingAndGlyphs" textLength="95" x="127.5" y="375.9204">AddGraphicsCard()</text><ellipse cx="118.5" cy="387.6711" fill="#84BE84" rx="3" ry="3" style="stroke: #038048; stroke-width: 1.0;"/><text fill="#000000" font-family="sans-serif" font-size="11" lengthAdjust="spacingAndGlyphs" textLength="71" x="127.5" y="391.5879">GetComputer()</text><!--class HpComputerBuilder--><rect fill="#FEFECE" filter="url(#fpooazpzr6ke3)" height="95.0024" id="HpComputerBuilder" style="stroke: #A80036; stroke-width: 1.5;" width="142" x="6" y="458"/><ellipse cx="21" cy="474" fill="#ADD1B2" rx="11" ry="11" style="stroke: #A80036; stroke-width: 1.0;"/><path d="M25.125,477.9531 Q24.7656,478.5781 23.9219,479.2188 Q22.5156,480.2344 19.7813,480.2344 Q17.5938,480.2344 16.125,478.7656 Q14.4219,477.0625 14.4219,473.875 Q14.4219,470.9375 16.1094,469.1406 Q17.6563,467.5156 19.875,467.5156 Q21.75,467.5156 22.7344,467.8125 Q23.7188,468.1094 23.7188,468.1094 Q23.7188,468.1094 23.7188,467.5469 L24.7344,467.4531 L24.8906,471.5156 L23.5625,471.6406 Q22.75,468.0469 20.0156,468.0469 Q20.0156,468.0469 19.4219,468.3281 Q18.5156,468.6719 18,469.2188 Q16.625,470.7656 16.6094,473.9063 Q16.5938,476.6875 18.125,478.25 Q19.4219,479.5781 20.25,479.5781 Q22.2813,479.5781 24.4688,477.0156 L25.125,477.9531 Z "/><text fill="#000000" font-family="sans-serif" font-size="12" lengthAdjust="spacingAndGlyphs" textLength="110" x="35" y="479.9092">HpComputerBuilder</text><line style="stroke: #A80036; stroke-width: 1.5;" x1="7" x2="147" y1="490" y2="490"/><line style="stroke: #A80036; stroke-width: 1.5;" x1="7" x2="147" y1="498" y2="498"/><ellipse cx="17" cy="511.3337" fill="#84BE84" rx="3" ry="3" style="stroke: #038048; stroke-width: 1.0;"/><text fill="#000000" font-family="sans-serif" font-size="11" lengthAdjust="spacingAndGlyphs" textLength="100" x="26" y="515.2505">HpComputerBuilder()</text><ellipse cx="17" cy="527.0012" fill="#84BE84" rx="3" ry="3" style="stroke: #038048; stroke-width: 1.0;"/><text fill="#000000" font-family="sans-serif" font-size="11" lengthAdjust="spacingAndGlyphs" textLength="71" x="26" y="530.918">GetComputer()</text><rect fill="#F24D5C" height="6" style="stroke: #C82930; stroke-width: 1.0;" width="6" x="14" y="539.6687"/><text fill="#000000" font-family="sans-serif" font-size="11" lengthAdjust="spacingAndGlyphs" textLength="42" x="26" y="546.5854">AddMb()</text><!--class AsusComputerBuilder--><rect fill="#FEFECE" filter="url(#fpooazpzr6ke3)" height="95.0024" id="AsusComputerBuilder" style="stroke: #A80036; stroke-width: 1.5;" width="154" x="183" y="458"/><ellipse cx="198" cy="474" fill="#ADD1B2" rx="11" ry="11" style="stroke: #A80036; stroke-width: 1.0;"/><path d="M202.125,477.9531 Q201.7656,478.5781 200.9219,479.2188 Q199.5156,480.2344 196.7813,480.2344 Q194.5938,480.2344 193.125,478.7656 Q191.4219,477.0625 191.4219,473.875 Q191.4219,470.9375 193.1094,469.1406 Q194.6563,467.5156 196.875,467.5156 Q198.75,467.5156 199.7344,467.8125 Q200.7188,468.1094 200.7188,468.1094 Q200.7188,468.1094 200.7188,467.5469 L201.7344,467.4531 L201.8906,471.5156 L200.5625,471.6406 Q199.75,468.0469 197.0156,468.0469 Q197.0156,468.0469 196.4219,468.3281 Q195.5156,468.6719 195,469.2188 Q193.625,470.7656 193.6094,473.9063 Q193.5938,476.6875 195.125,478.25 Q196.4219,479.5781 197.25,479.5781 Q199.2813,479.5781 201.4688,477.0156 L202.125,477.9531 Z "/><text fill="#000000" font-family="sans-serif" font-size="12" lengthAdjust="spacingAndGlyphs" textLength="122" x="212" y="479.9092">AsusComputerBuilder</text><line style="stroke: #A80036; stroke-width: 1.5;" x1="184" x2="336" y1="490" y2="490"/><line style="stroke: #A80036; stroke-width: 1.5;" x1="184" x2="336" y1="498" y2="498"/><ellipse cx="194" cy="511.3337" fill="#84BE84" rx="3" ry="3" style="stroke: #038048; stroke-width: 1.0;"/><text fill="#000000" font-family="sans-serif" font-size="11" lengthAdjust="spacingAndGlyphs" textLength="113" x="203" y="515.2505">AsusComputerBuilder()</text><ellipse cx="194" cy="527.0012" fill="#84BE84" rx="3" ry="3" style="stroke: #038048; stroke-width: 1.0;"/><text fill="#000000" font-family="sans-serif" font-size="11" lengthAdjust="spacingAndGlyphs" textLength="71" x="203" y="530.918">GetComputer()</text><rect fill="#F24D5C" height="6" style="stroke: #C82930; stroke-width: 1.0;" width="6" x="191" y="539.6687"/><text fill="#000000" font-family="sans-serif" font-size="11" lengthAdjust="spacingAndGlyphs" textLength="42" x="203" y="546.5854">AddMb()</text><!--class Computer--><rect fill="#FEFECE" filter="url(#fpooazpzr6ke3)" height="95.0024" id="Computer" style="stroke: #A80036; stroke-width: 1.5;" width="96" x="120" y="613"/><ellipse cx="139.05" cy="629" fill="#ADD1B2" rx="11" ry="11" style="stroke: #A80036; stroke-width: 1.0;"/><path d="M143.175,632.9531 Q142.8156,633.5781 141.9719,634.2188 Q140.5656,635.2344 137.8313,635.2344 Q135.6438,635.2344 134.175,633.7656 Q132.4719,632.0625 132.4719,628.875 Q132.4719,625.9375 134.1594,624.1406 Q135.7063,622.5156 137.925,622.5156 Q139.8,622.5156 140.7844,622.8125 Q141.7688,623.1094 141.7688,623.1094 Q141.7688,623.1094 141.7688,622.5469 L142.7844,622.4531 L142.9406,626.5156 L141.6125,626.6406 Q140.8,623.0469 138.0656,623.0469 Q138.0656,623.0469 137.4719,623.3281 Q136.5656,623.6719 136.05,624.2188 Q134.675,625.7656 134.6594,628.9063 Q134.6438,631.6875 136.175,633.25 Q137.4719,634.5781 138.3,634.5781 Q140.3313,634.5781 142.5188,632.0156 L143.175,632.9531 Z "/><text fill="#000000" font-family="sans-serif" font-size="12" lengthAdjust="spacingAndGlyphs" textLength="55" x="153.95" y="634.9092">Computer</text><line style="stroke: #A80036; stroke-width: 1.5;" x1="121" x2="215" y1="645" y2="645"/><rect fill="none" height="6" style="stroke: #C82930; stroke-width: 1.0;" width="6" x="128" y="655.3337"/><text fill="#000000" font-family="sans-serif" font-size="11" lengthAdjust="spacingAndGlyphs" textLength="70" x="140" y="662.2505">computerParts</text><line style="stroke: #A80036; stroke-width: 1.5;" x1="121" x2="215" y1="668.6675" y2="668.6675"/><ellipse cx="131" cy="682.0012" fill="#84BE84" rx="3" ry="3" style="stroke: #038048; stroke-width: 1.0;"/><text fill="#000000" font-family="sans-serif" font-size="11" lengthAdjust="spacingAndGlyphs" textLength="28" x="140" y="685.918">Add()</text><ellipse cx="131" cy="697.6687" fill="#84BE84" rx="3" ry="3" style="stroke: #038048; stroke-width: 1.0;"/><text fill="#000000" font-family="sans-serif" font-size="11" lengthAdjust="spacingAndGlyphs" textLength="37" x="140" y="701.5854">Show()</text><!--link Program to Director--><path d="M168,72.101 C168,88.736 168,109.311 168,126.677 " fill="none" id="Program-Director" style="stroke: #A80036; stroke-width: 1.0;"/><polygon fill="#A80036" points="168,131.955,172,122.955,168,126.955,164,122.955,168,131.955" style="stroke: #A80036; stroke-width: 1.0;"/><!--link Director to Builder--><path d="M168,209.155 C168,223.542 168,239.891 168,255.705 " fill="none" id="Director-Builder" style="stroke: #A80036; stroke-width: 1.0;"/><polygon fill="#FFFFFF" points="168,196.042,164,202.042,168,208.042,172,202.042,168,196.042" style="stroke: #A80036; stroke-width: 1.0;"/><!--link Builder to HpComputerBuilder--><path d="M122.547,416.16 C115.111,430.581 107.675,445.005 101.0303,457.892 " fill="none" id="Builder-HpComputerBuilder" style="stroke: #A80036; stroke-width: 1.0;"/><polygon fill="none" points="116.517,412.58,131.904,398.011,128.96,418.995,116.517,412.58" style="stroke: #A80036; stroke-width: 1.0;"/><!--link Builder to AsusComputerBuilder--><path d="M213.953,416.16 C221.47,430.581 228.988,445.005 235.706,457.892 " fill="none" id="Builder-AsusComputerBuilder" style="stroke: #A80036; stroke-width: 1.0;"/><polygon fill="none" points="207.53,418.982,204.493,398.011,219.945,412.511,207.53,418.982" style="stroke: #A80036; stroke-width: 1.0;"/><!--link HpComputerBuilder to Computer--><path d="M104.7975,553.236 C115.157,570.654 126.968,590.511 137.553,608.3088 " fill="none" id="HpComputerBuilder-Computer" style="stroke: #A80036; stroke-width: 1.0; stroke-dasharray: 7.0,7.0;"/><polygon fill="#A80036" points="140.216,612.7864,139.0519,603.0066,137.6595,608.4894,132.1767,607.097,140.216,612.7864" style="stroke: #A80036; stroke-width: 1.0;"/><!--link AsusComputerBuilder to Computer--><path d="M231.897,553.236 C221.423,570.654 209.483,590.511 198.782,608.3088 " fill="none" id="AsusComputerBuilder-Computer" style="stroke: #A80036; stroke-width: 1.0; stroke-dasharray: 7.0,7.0;"/><polygon fill="#A80036" points="196.089,612.7864,204.1539,607.1333,198.6648,608.501,197.2972,603.0119,196.089,612.7864" style="stroke: #A80036; stroke-width: 1.0;"/><!--
@startuml Homework4ClassDiagram

class Program{
    -Main()
}

class Director {
    +Construct()
}

abstract class Builder {
    #product
    +AddRam()
    +AddCpu()
    +AddHd()
    +AddGraphicsCard()
    +GetComputer()
}

class HpComputerBuilder{
    +HpComputerBuilder()
    +GetComputer()
    -AddMb()
}

class AsusComputerBuilder{
    +AsusComputerBuilder()
    +GetComputer()
    -AddMb()
}

class Computer{
    -computerParts
    +Add()
    +Show()
}

Program - -> Director
Director o- - Builder 
Builder <|- - HpComputerBuilder
Builder <|- - AsusComputerBuilder
HpComputerBuilder ..> Computer
AsusComputerBuilder ..> Computer
@enduml

PlantUML version 1.2017.20(Tue Dec 12 00:57:05 CST 2017)
(GPL source distribution)
Java Runtime: Java(TM) SE Runtime Environment
JVM: Java HotSpot(TM) 64-Bit Server VM
Java Version: 9.0.1+11
Operating System: Windows 10
OS Version: 10.0
Default Encoding: MS950
Language: zh
Country: TW
--></g></svg>