<?xml version="1.0" encoding="UTF-8" standalone="no"?><svg xmlns="http://www.w3.org/2000/svg" xmlns:xlink="http://www.w3.org/1999/xlink" contentScriptType="application/ecmascript" contentStyleType="text/css" height="724px" preserveAspectRatio="none" style="width:1566px;height:724px;" version="1.1" viewBox="0 0 1566 724" width="1566px" zoomAndPan="magnify"><defs><filter height="300%" id="fmtwn1v8pwnym" width="300%" x="-1" y="-1"><feGaussianBlur result="blurOut" stdDeviation="2.0"/><feColorMatrix in="blurOut" result="blurOut2" type="matrix" values="0 0 0 0 0 0 0 0 0 0 0 0 0 0 0 0 0 0 .4 0"/><feOffset dx="4.0" dy="4.0" in="blurOut2" result="blurOut3"/><feBlend in="SourceGraphic" in2="blurOut3" mode="normal"/></filter></defs><g><!--cluster Abstract--><polygon fill="#FFFFFF" filter="url(#fmtwn1v8pwnym)" points="314,188,378,188,385,213.9404,1411,213.9404,1411,368,314,368,314,188" style="stroke: #000000; stroke-width: 1.5;"/><line style="stroke: #000000; stroke-width: 1.5;" x1="314" x2="385" y1="213.9404" y2="213.9404"/><text fill="#000000" font-family="sans-serif" font-size="14" font-weight="bold" lengthAdjust="spacingAndGlyphs" textLength="58" x="318" y="206.8643">Abstract</text><!--cluster Pokemon--><polygon fill="#FFFFFF" filter="url(#fmtwn1v8pwnym)" points="22,392,93,392,100,417.9404,791,417.9404,791,712,22,712,22,392" style="stroke: #000000; stroke-width: 1.5;"/><line style="stroke: #000000; stroke-width: 1.5;" x1="22" x2="100" y1="417.9404" y2="417.9404"/><text fill="#000000" font-family="sans-serif" font-size="14" font-weight="bold" lengthAdjust="spacingAndGlyphs" textLength="65" x="26" y="410.8643">Pokemon</text><!--cluster Warcraft--><polygon fill="#FFFFFF" filter="url(#fmtwn1v8pwnym)" points="815,392,880,392,887,417.9404,1544,417.9404,1544,712,815,712,815,392" style="stroke: #000000; stroke-width: 1.5;"/><line style="stroke: #000000; stroke-width: 1.5;" x1="815" x2="887" y1="417.9404" y2="417.9404"/><text fill="#000000" font-family="sans-serif" font-size="14" font-weight="bold" lengthAdjust="spacingAndGlyphs" textLength="59" x="819" y="410.8643">Warcraft</text><!--class AbstractCosplayClothingFactory--><rect fill="#FEFECE" filter="url(#fmtwn1v8pwnym)" height="126.3374" id="AbstractCosplayClothingFactory" style="stroke: #A80036; stroke-width: 1.5;" width="208" x="330" y="226"/><ellipse cx="345" cy="242" fill="#A9DCDF" rx="11" ry="11" style="stroke: #A80036; stroke-width: 1.0;"/><path d="M351.2344,246.7656 L346.3125,246.7656 L346.3125,246.4375 Q346.9531,246.3906 347.2188,246.2969 Q347.6406,246.1094 347.6406,245.5938 Q347.6406,245.1875 347.3438,244.4063 L346.75,242.7656 L343.1094,242.7656 L342.2813,244.875 Q342.1406,245.2031 342.1406,245.5938 Q342.1406,246.125 342.5469,246.2969 Q342.7188,246.3906 343.2344,246.4375 L343.2344,246.7656 L339.2031,246.7656 L339.2031,246.4375 Q339.4219,246.3906 339.625,246.3438 Q339.8281,246.2969 340.0156,246.0625 Q340.4844,245.4688 341.2188,243.4375 L344.5781,234.3281 L345.6406,234.3281 L349.5781,244.7969 Q349.9375,245.7969 350.375,246.1563 Q350.625,246.3438 351.2344,246.4375 L351.2344,246.7656 Z M346.5313,242.1406 L344.75,236.9063 L343.25,242.1406 L346.5313,242.1406 Z "/><text fill="#000000" font-family="sans-serif" font-size="12" font-style="italic" lengthAdjust="spacingAndGlyphs" textLength="176" x="359" y="247.9092">AbstractCosplayClothingFactory</text><line style="stroke: #A80036; stroke-width: 1.5;" x1="331" x2="537" y1="258" y2="258"/><line style="stroke: #A80036; stroke-width: 1.5;" x1="331" x2="537" y1="266" y2="266"/><ellipse cx="341" cy="279.3337" fill="#84BE84" rx="3" ry="3" style="stroke: #038048; stroke-width: 1.0;"/><text fill="#000000" font-family="sans-serif" font-size="11" lengthAdjust="spacingAndGlyphs" textLength="64" x="350" y="283.2505">ProduceHat()</text><ellipse cx="341" cy="295.0012" fill="#84BE84" rx="3" ry="3" style="stroke: #038048; stroke-width: 1.0;"/><text fill="#000000" font-family="sans-serif" font-size="11" lengthAdjust="spacingAndGlyphs" textLength="80" x="350" y="298.918">ProduceHelmet()</text><ellipse cx="341" cy="310.6687" fill="#84BE84" rx="3" ry="3" style="stroke: #038048; stroke-width: 1.0;"/><text fill="#000000" font-family="sans-serif" font-size="11" lengthAdjust="spacingAndGlyphs" textLength="78" x="350" y="314.5854">ProduceArmor()</text><ellipse cx="341" cy="326.3362" fill="#84BE84" rx="3" ry="3" style="stroke: #038048; stroke-width: 1.0;"/><text fill="#000000" font-family="sans-serif" font-size="11" lengthAdjust="spacingAndGlyphs" textLength="76" x="350" y="330.2529">ProduceBoots()</text><ellipse cx="341" cy="342.0037" fill="#84BE84" rx="3" ry="3" style="stroke: #038048; stroke-width: 1.0;"/><text fill="#000000" font-family="sans-serif" font-size="11" lengthAdjust="spacingAndGlyphs" textLength="88" x="350" y="345.9204">ProduceWeapon()</text><!--class AbstractArmor--><rect fill="#FEFECE" filter="url(#fmtwn1v8pwnym)" height="95.0024" id="AbstractArmor" style="stroke: #A80036; stroke-width: 1.5;" width="137" x="573.5" y="241.5"/><ellipse cx="600.2" cy="257.5" fill="#A9DCDF" rx="11" ry="11" style="stroke: #A80036; stroke-width: 1.0;"/><path d="M606.4344,262.2656 L601.5125,262.2656 L601.5125,261.9375 Q602.1531,261.8906 602.4188,261.7969 Q602.8406,261.6094 602.8406,261.0938 Q602.8406,260.6875 602.5438,259.9063 L601.95,258.2656 L598.3094,258.2656 L597.4813,260.375 Q597.3406,260.7031 597.3406,261.0938 Q597.3406,261.625 597.7469,261.7969 Q597.9188,261.8906 598.4344,261.9375 L598.4344,262.2656 L594.4031,262.2656 L594.4031,261.9375 Q594.6219,261.8906 594.825,261.8438 Q595.0281,261.7969 595.2156,261.5625 Q595.6844,260.9688 596.4188,258.9375 L599.7781,249.8281 L600.8406,249.8281 L604.7781,260.2969 Q605.1375,261.2969 605.575,261.6563 Q605.825,261.8438 606.4344,261.9375 L606.4344,262.2656 Z M601.7313,257.6406 L599.95,252.4063 L598.45,257.6406 L601.7313,257.6406 Z "/><text fill="#000000" font-family="sans-serif" font-size="12" font-style="italic" lengthAdjust="spacingAndGlyphs" textLength="79" x="616.8" y="263.4092">AbstractArmor</text><line style="stroke: #A80036; stroke-width: 1.5;" x1="574.5" x2="709.5" y1="273.5" y2="273.5"/><polygon fill="none" points="584.5,281.8337,588.5,285.8337,584.5,289.8337,580.5,285.8337" style="stroke: #B38D22; stroke-width: 1.0;"/><text fill="#000000" font-family="sans-serif" font-size="11" lengthAdjust="spacingAndGlyphs" textLength="48" x="593.5" y="290.7505">RoleName</text><line style="stroke: #A80036; stroke-width: 1.5;" x1="574.5" x2="709.5" y1="297.1675" y2="297.1675"/><ellipse cx="584.5" cy="310.5012" fill="#84BE84" rx="3" ry="3" style="stroke: #038048; stroke-width: 1.0;"/><text fill="#000000" font-family="sans-serif" font-size="11" lengthAdjust="spacingAndGlyphs" textLength="80" x="593.5" y="314.418">AbstractArmor()</text><ellipse cx="584.5" cy="326.1687" fill="#84BE84" rx="3" ry="3" style="stroke: #038048; stroke-width: 1.0;"/><text fill="#000000" font-family="sans-serif" font-size="11" lengthAdjust="spacingAndGlyphs" textLength="111" x="593.5" y="330.0854">ProduceArmorOfRole()</text><!--class AbstractBoots--><rect fill="#FEFECE" filter="url(#fmtwn1v8pwnym)" height="95.0024" id="AbstractBoots" style="stroke: #A80036; stroke-width: 1.5;" width="135" x="745.5" y="241.5"/><ellipse cx="772.65" cy="257.5" fill="#A9DCDF" rx="11" ry="11" style="stroke: #A80036; stroke-width: 1.0;"/><path d="M778.8844,262.2656 L773.9625,262.2656 L773.9625,261.9375 Q774.6031,261.8906 774.8688,261.7969 Q775.2906,261.6094 775.2906,261.0938 Q775.2906,260.6875 774.9938,259.9063 L774.4,258.2656 L770.7594,258.2656 L769.9313,260.375 Q769.7906,260.7031 769.7906,261.0938 Q769.7906,261.625 770.1969,261.7969 Q770.3688,261.8906 770.8844,261.9375 L770.8844,262.2656 L766.8531,262.2656 L766.8531,261.9375 Q767.0719,261.8906 767.275,261.8438 Q767.4781,261.7969 767.6656,261.5625 Q768.1344,260.9688 768.8688,258.9375 L772.2281,249.8281 L773.2906,249.8281 L777.2281,260.2969 Q777.5875,261.2969 778.025,261.6563 Q778.275,261.8438 778.8844,261.9375 L778.8844,262.2656 Z M774.1813,257.6406 L772.4,252.4063 L770.9,257.6406 L774.1813,257.6406 Z "/><text fill="#000000" font-family="sans-serif" font-size="12" font-style="italic" lengthAdjust="spacingAndGlyphs" textLength="76" x="789.35" y="263.4092">AbstractBoots</text><line style="stroke: #A80036; stroke-width: 1.5;" x1="746.5" x2="879.5" y1="273.5" y2="273.5"/><polygon fill="none" points="756.5,281.8337,760.5,285.8337,756.5,289.8337,752.5,285.8337" style="stroke: #B38D22; stroke-width: 1.0;"/><text fill="#000000" font-family="sans-serif" font-size="11" lengthAdjust="spacingAndGlyphs" textLength="48" x="765.5" y="290.7505">RoleName</text><line style="stroke: #A80036; stroke-width: 1.5;" x1="746.5" x2="879.5" y1="297.1675" y2="297.1675"/><ellipse cx="756.5" cy="310.5012" fill="#84BE84" rx="3" ry="3" style="stroke: #038048; stroke-width: 1.0;"/><text fill="#000000" font-family="sans-serif" font-size="11" lengthAdjust="spacingAndGlyphs" textLength="78" x="765.5" y="314.418">AbstractBoots()</text><ellipse cx="756.5" cy="326.1687" fill="#84BE84" rx="3" ry="3" style="stroke: #038048; stroke-width: 1.0;"/><text fill="#000000" font-family="sans-serif" font-size="11" lengthAdjust="spacingAndGlyphs" textLength="109" x="765.5" y="330.0854">ProduceBootsOfRole()</text><!--class AbstractHat--><rect fill="#FEFECE" filter="url(#fmtwn1v8pwnym)" height="95.0024" id="AbstractHat" style="stroke: #A80036; stroke-width: 1.5;" width="123" x="915.5" y="241.5"/><ellipse cx="942.65" cy="257.5" fill="#A9DCDF" rx="11" ry="11" style="stroke: #A80036; stroke-width: 1.0;"/><path d="M948.8844,262.2656 L943.9625,262.2656 L943.9625,261.9375 Q944.6031,261.8906 944.8688,261.7969 Q945.2906,261.6094 945.2906,261.0938 Q945.2906,260.6875 944.9938,259.9063 L944.4,258.2656 L940.7594,258.2656 L939.9313,260.375 Q939.7906,260.7031 939.7906,261.0938 Q939.7906,261.625 940.1969,261.7969 Q940.3688,261.8906 940.8844,261.9375 L940.8844,262.2656 L936.8531,262.2656 L936.8531,261.9375 Q937.0719,261.8906 937.275,261.8438 Q937.4781,261.7969 937.6656,261.5625 Q938.1344,260.9688 938.8688,258.9375 L942.2281,249.8281 L943.2906,249.8281 L947.2281,260.2969 Q947.5875,261.2969 948.025,261.6563 Q948.275,261.8438 948.8844,261.9375 L948.8844,262.2656 Z M944.1813,257.6406 L942.4,252.4063 L940.9,257.6406 L944.1813,257.6406 Z "/><text fill="#000000" font-family="sans-serif" font-size="12" font-style="italic" lengthAdjust="spacingAndGlyphs" textLength="64" x="959.35" y="263.4092">AbstractHat</text><line style="stroke: #A80036; stroke-width: 1.5;" x1="916.5" x2="1037.5" y1="273.5" y2="273.5"/><polygon fill="none" points="926.5,281.8337,930.5,285.8337,926.5,289.8337,922.5,285.8337" style="stroke: #B38D22; stroke-width: 1.0;"/><text fill="#000000" font-family="sans-serif" font-size="11" lengthAdjust="spacingAndGlyphs" textLength="48" x="935.5" y="290.7505">RoleName</text><line style="stroke: #A80036; stroke-width: 1.5;" x1="916.5" x2="1037.5" y1="297.1675" y2="297.1675"/><ellipse cx="926.5" cy="310.5012" fill="#84BE84" rx="3" ry="3" style="stroke: #038048; stroke-width: 1.0;"/><text fill="#000000" font-family="sans-serif" font-size="11" lengthAdjust="spacingAndGlyphs" textLength="66" x="935.5" y="314.418">AbstractHat()</text><ellipse cx="926.5" cy="326.1687" fill="#84BE84" rx="3" ry="3" style="stroke: #038048; stroke-width: 1.0;"/><text fill="#000000" font-family="sans-serif" font-size="11" lengthAdjust="spacingAndGlyphs" textLength="97" x="935.5" y="330.0854">ProduceHatOfRole()</text><!--class AbstractHelmet--><rect fill="#FEFECE" filter="url(#fmtwn1v8pwnym)" height="95.0024" id="AbstractHelmet" style="stroke: #A80036; stroke-width: 1.5;" width="139" x="1073.5" y="241.5"/><ellipse cx="1098.4" cy="257.5" fill="#A9DCDF" rx="11" ry="11" style="stroke: #A80036; stroke-width: 1.0;"/><path d="M1104.6344,262.2656 L1099.7125,262.2656 L1099.7125,261.9375 Q1100.3531,261.8906 1100.6188,261.7969 Q1101.0406,261.6094 1101.0406,261.0938 Q1101.0406,260.6875 1100.7438,259.9063 L1100.15,258.2656 L1096.5094,258.2656 L1095.6813,260.375 Q1095.5406,260.7031 1095.5406,261.0938 Q1095.5406,261.625 1095.9469,261.7969 Q1096.1188,261.8906 1096.6344,261.9375 L1096.6344,262.2656 L1092.6031,262.2656 L1092.6031,261.9375 Q1092.8219,261.8906 1093.025,261.8438 Q1093.2281,261.7969 1093.4156,261.5625 Q1093.8844,260.9688 1094.6188,258.9375 L1097.9781,249.8281 L1099.0406,249.8281 L1102.9781,260.2969 Q1103.3375,261.2969 1103.775,261.6563 Q1104.025,261.8438 1104.6344,261.9375 L1104.6344,262.2656 Z M1099.9313,257.6406 L1098.15,252.4063 L1096.65,257.6406 L1099.9313,257.6406 Z "/><text fill="#000000" font-family="sans-serif" font-size="12" font-style="italic" lengthAdjust="spacingAndGlyphs" textLength="85" x="1114.6" y="263.4092">AbstractHelmet</text><line style="stroke: #A80036; stroke-width: 1.5;" x1="1074.5" x2="1211.5" y1="273.5" y2="273.5"/><polygon fill="none" points="1084.5,281.8337,1088.5,285.8337,1084.5,289.8337,1080.5,285.8337" style="stroke: #B38D22; stroke-width: 1.0;"/><text fill="#000000" font-family="sans-serif" font-size="11" lengthAdjust="spacingAndGlyphs" textLength="48" x="1093.5" y="290.7505">RoleName</text><line style="stroke: #A80036; stroke-width: 1.5;" x1="1074.5" x2="1211.5" y1="297.1675" y2="297.1675"/><ellipse cx="1084.5" cy="310.5012" fill="#84BE84" rx="3" ry="3" style="stroke: #038048; stroke-width: 1.0;"/><text fill="#000000" font-family="sans-serif" font-size="11" lengthAdjust="spacingAndGlyphs" textLength="82" x="1093.5" y="314.418">AbstractHelmet()</text><ellipse cx="1084.5" cy="326.1687" fill="#84BE84" rx="3" ry="3" style="stroke: #038048; stroke-width: 1.0;"/><text fill="#000000" font-family="sans-serif" font-size="11" lengthAdjust="spacingAndGlyphs" textLength="113" x="1093.5" y="330.0854">ProduceHelmetOfRole()</text><!--class AbstractWeapon--><rect fill="#FEFECE" filter="url(#fmtwn1v8pwnym)" height="95.0024" id="AbstractWeapon" style="stroke: #A80036; stroke-width: 1.5;" width="147" x="1247.5" y="241.5"/><ellipse cx="1273.3" cy="257.5" fill="#A9DCDF" rx="11" ry="11" style="stroke: #A80036; stroke-width: 1.0;"/><path d="M1279.5344,262.2656 L1274.6125,262.2656 L1274.6125,261.9375 Q1275.2531,261.8906 1275.5188,261.7969 Q1275.9406,261.6094 1275.9406,261.0938 Q1275.9406,260.6875 1275.6438,259.9063 L1275.05,258.2656 L1271.4094,258.2656 L1270.5813,260.375 Q1270.4406,260.7031 1270.4406,261.0938 Q1270.4406,261.625 1270.8469,261.7969 Q1271.0188,261.8906 1271.5344,261.9375 L1271.5344,262.2656 L1267.5031,262.2656 L1267.5031,261.9375 Q1267.7219,261.8906 1267.925,261.8438 Q1268.1281,261.7969 1268.3156,261.5625 Q1268.7844,260.9688 1269.5188,258.9375 L1272.8781,249.8281 L1273.9406,249.8281 L1277.8781,260.2969 Q1278.2375,261.2969 1278.675,261.6563 Q1278.925,261.8438 1279.5344,261.9375 L1279.5344,262.2656 Z M1274.8313,257.6406 L1273.05,252.4063 L1271.55,257.6406 L1274.8313,257.6406 Z "/><text fill="#000000" font-family="sans-serif" font-size="12" font-style="italic" lengthAdjust="spacingAndGlyphs" textLength="91" x="1289.7" y="263.4092">AbstractWeapon</text><line style="stroke: #A80036; stroke-width: 1.5;" x1="1248.5" x2="1393.5" y1="273.5" y2="273.5"/><polygon fill="none" points="1258.5,281.8337,1262.5,285.8337,1258.5,289.8337,1254.5,285.8337" style="stroke: #B38D22; stroke-width: 1.0;"/><text fill="#000000" font-family="sans-serif" font-size="11" lengthAdjust="spacingAndGlyphs" textLength="48" x="1267.5" y="290.7505">RoleName</text><line style="stroke: #A80036; stroke-width: 1.5;" x1="1248.5" x2="1393.5" y1="297.1675" y2="297.1675"/><ellipse cx="1258.5" cy="310.5012" fill="#84BE84" rx="3" ry="3" style="stroke: #038048; stroke-width: 1.0;"/><text fill="#000000" font-family="sans-serif" font-size="11" lengthAdjust="spacingAndGlyphs" textLength="90" x="1267.5" y="314.418">AbstractWeapon()</text><ellipse cx="1258.5" cy="326.1687" fill="#84BE84" rx="3" ry="3" style="stroke: #038048; stroke-width: 1.0;"/><text fill="#000000" font-family="sans-serif" font-size="11" lengthAdjust="spacingAndGlyphs" textLength="121" x="1267.5" y="330.0854">ProduceWeaponOfRole()</text><!--class PokemonCosplayClothingFactory--><rect fill="#FEFECE" filter="url(#fmtwn1v8pwnym)" height="157.6724" id="PokemonCosplayClothingFactory" style="stroke: #A80036; stroke-width: 1.5;" width="215" x="225.5" y="430"/><ellipse cx="240.5" cy="446" fill="#ADD1B2" rx="11" ry="11" style="stroke: #A80036; stroke-width: 1.0;"/><path d="M244.625,449.9531 Q244.2656,450.5781 243.4219,451.2188 Q242.0156,452.2344 239.2813,452.2344 Q237.0938,452.2344 235.625,450.7656 Q233.9219,449.0625 233.9219,445.875 Q233.9219,442.9375 235.6094,441.1406 Q237.1563,439.5156 239.375,439.5156 Q241.25,439.5156 242.2344,439.8125 Q243.2188,440.1094 243.2188,440.1094 Q243.2188,440.1094 243.2188,439.5469 L244.2344,439.4531 L244.3906,443.5156 L243.0625,443.6406 Q242.25,440.0469 239.5156,440.0469 Q239.5156,440.0469 238.9219,440.3281 Q238.0156,440.6719 237.5,441.2188 Q236.125,442.7656 236.1094,445.9063 Q236.0938,448.6875 237.625,450.25 Q238.9219,451.5781 239.75,451.5781 Q241.7813,451.5781 243.9688,449.0156 L244.625,449.9531 Z "/><text fill="#000000" font-family="sans-serif" font-size="12" lengthAdjust="spacingAndGlyphs" textLength="183" x="254.5" y="451.9092">PokemonCosplayClothingFactory</text><line style="stroke: #A80036; stroke-width: 1.5;" x1="226.5" x2="439.5" y1="462" y2="462"/><polygon fill="none" points="236.5,470.3337,240.5,474.3337,236.5,478.3337,232.5,474.3337" style="stroke: #B38D22; stroke-width: 1.0;"/><text fill="#000000" font-family="sans-serif" font-size="11" lengthAdjust="spacingAndGlyphs" textLength="48" x="245.5" y="479.2505">RoleName</text><line style="stroke: #A80036; stroke-width: 1.5;" x1="226.5" x2="439.5" y1="485.6675" y2="485.6675"/><ellipse cx="236.5" cy="499.0012" fill="#84BE84" rx="3" ry="3" style="stroke: #038048; stroke-width: 1.0;"/><text fill="#000000" font-family="sans-serif" font-size="11" lengthAdjust="spacingAndGlyphs" textLength="165" x="245.5" y="502.918">PokemonCosplayClothingFactory()</text><ellipse cx="236.5" cy="514.6687" fill="#84BE84" rx="3" ry="3" style="stroke: #038048; stroke-width: 1.0;"/><text fill="#000000" font-family="sans-serif" font-size="11" lengthAdjust="spacingAndGlyphs" textLength="64" x="245.5" y="518.5854">ProduceHat()</text><ellipse cx="236.5" cy="530.3362" fill="#84BE84" rx="3" ry="3" style="stroke: #038048; stroke-width: 1.0;"/><text fill="#000000" font-family="sans-serif" font-size="11" lengthAdjust="spacingAndGlyphs" textLength="80" x="245.5" y="534.2529">ProduceHelmet()</text><ellipse cx="236.5" cy="546.0037" fill="#84BE84" rx="3" ry="3" style="stroke: #038048; stroke-width: 1.0;"/><text fill="#000000" font-family="sans-serif" font-size="11" lengthAdjust="spacingAndGlyphs" textLength="78" x="245.5" y="549.9204">ProduceArmor()</text><ellipse cx="236.5" cy="561.6711" fill="#84BE84" rx="3" ry="3" style="stroke: #038048; stroke-width: 1.0;"/><text fill="#000000" font-family="sans-serif" font-size="11" lengthAdjust="spacingAndGlyphs" textLength="76" x="245.5" y="565.5879">ProduceBoots()</text><ellipse cx="236.5" cy="577.3386" fill="#84BE84" rx="3" ry="3" style="stroke: #038048; stroke-width: 1.0;"/><text fill="#000000" font-family="sans-serif" font-size="11" lengthAdjust="spacingAndGlyphs" textLength="88" x="245.5" y="581.2554">ProduceWeapon()</text><!--class PokemonArmor--><rect fill="#FEFECE" filter="url(#fmtwn1v8pwnym)" height="48" id="PokemonArmor" style="stroke: #A80036; stroke-width: 1.5;" width="118" x="38" y="648"/><ellipse cx="53" cy="664" fill="#ADD1B2" rx="11" ry="11" style="stroke: #A80036; stroke-width: 1.0;"/><path d="M57.125,667.9531 Q56.7656,668.5781 55.9219,669.2188 Q54.5156,670.2344 51.7813,670.2344 Q49.5938,670.2344 48.125,668.7656 Q46.4219,667.0625 46.4219,663.875 Q46.4219,660.9375 48.1094,659.1406 Q49.6563,657.5156 51.875,657.5156 Q53.75,657.5156 54.7344,657.8125 Q55.7188,658.1094 55.7188,658.1094 Q55.7188,658.1094 55.7188,657.5469 L56.7344,657.4531 L56.8906,661.5156 L55.5625,661.6406 Q54.75,658.0469 52.0156,658.0469 Q52.0156,658.0469 51.4219,658.3281 Q50.5156,658.6719 50,659.2188 Q48.625,660.7656 48.6094,663.9063 Q48.5938,666.6875 50.125,668.25 Q51.4219,669.5781 52.25,669.5781 Q54.2813,669.5781 56.4688,667.0156 L57.125,667.9531 Z "/><text fill="#000000" font-family="sans-serif" font-size="12" lengthAdjust="spacingAndGlyphs" textLength="86" x="67" y="669.9092">PokemonArmor</text><line style="stroke: #A80036; stroke-width: 1.5;" x1="39" x2="155" y1="680" y2="680"/><line style="stroke: #A80036; stroke-width: 1.5;" x1="39" x2="155" y1="688" y2="688"/><!--class PokemonBoots--><rect fill="#FEFECE" filter="url(#fmtwn1v8pwnym)" height="48" id="PokemonBoots" style="stroke: #A80036; stroke-width: 1.5;" width="117" x="191.5" y="648"/><ellipse cx="206.5" cy="664" fill="#ADD1B2" rx="11" ry="11" style="stroke: #A80036; stroke-width: 1.0;"/><path d="M210.625,667.9531 Q210.2656,668.5781 209.4219,669.2188 Q208.0156,670.2344 205.2813,670.2344 Q203.0938,670.2344 201.625,668.7656 Q199.9219,667.0625 199.9219,663.875 Q199.9219,660.9375 201.6094,659.1406 Q203.1563,657.5156 205.375,657.5156 Q207.25,657.5156 208.2344,657.8125 Q209.2188,658.1094 209.2188,658.1094 Q209.2188,658.1094 209.2188,657.5469 L210.2344,657.4531 L210.3906,661.5156 L209.0625,661.6406 Q208.25,658.0469 205.5156,658.0469 Q205.5156,658.0469 204.9219,658.3281 Q204.0156,658.6719 203.5,659.2188 Q202.125,660.7656 202.1094,663.9063 Q202.0938,666.6875 203.625,668.25 Q204.9219,669.5781 205.75,669.5781 Q207.7813,669.5781 209.9688,667.0156 L210.625,667.9531 Z "/><text fill="#000000" font-family="sans-serif" font-size="12" lengthAdjust="spacingAndGlyphs" textLength="85" x="220.5" y="669.9092">PokemonBoots</text><line style="stroke: #A80036; stroke-width: 1.5;" x1="192.5" x2="307.5" y1="680" y2="680"/><line style="stroke: #A80036; stroke-width: 1.5;" x1="192.5" x2="307.5" y1="688" y2="688"/><!--class PokemonHat--><rect fill="#FEFECE" filter="url(#fmtwn1v8pwnym)" height="48" id="PokemonHat" style="stroke: #A80036; stroke-width: 1.5;" width="104" x="344" y="648"/><ellipse cx="359" cy="664" fill="#ADD1B2" rx="11" ry="11" style="stroke: #A80036; stroke-width: 1.0;"/><path d="M363.125,667.9531 Q362.7656,668.5781 361.9219,669.2188 Q360.5156,670.2344 357.7813,670.2344 Q355.5938,670.2344 354.125,668.7656 Q352.4219,667.0625 352.4219,663.875 Q352.4219,660.9375 354.1094,659.1406 Q355.6563,657.5156 357.875,657.5156 Q359.75,657.5156 360.7344,657.8125 Q361.7188,658.1094 361.7188,658.1094 Q361.7188,658.1094 361.7188,657.5469 L362.7344,657.4531 L362.8906,661.5156 L361.5625,661.6406 Q360.75,658.0469 358.0156,658.0469 Q358.0156,658.0469 357.4219,658.3281 Q356.5156,658.6719 356,659.2188 Q354.625,660.7656 354.6094,663.9063 Q354.5938,666.6875 356.125,668.25 Q357.4219,669.5781 358.25,669.5781 Q360.2813,669.5781 362.4688,667.0156 L363.125,667.9531 Z "/><text fill="#000000" font-family="sans-serif" font-size="12" lengthAdjust="spacingAndGlyphs" textLength="72" x="373" y="669.9092">PokemonHat</text><line style="stroke: #A80036; stroke-width: 1.5;" x1="345" x2="447" y1="680" y2="680"/><line style="stroke: #A80036; stroke-width: 1.5;" x1="345" x2="447" y1="688" y2="688"/><!--class PokemonHelmet--><rect fill="#FEFECE" filter="url(#fmtwn1v8pwnym)" height="48" id="PokemonHelmet" style="stroke: #A80036; stroke-width: 1.5;" width="125" x="483.5" y="648"/><ellipse cx="498.5" cy="664" fill="#ADD1B2" rx="11" ry="11" style="stroke: #A80036; stroke-width: 1.0;"/><path d="M502.625,667.9531 Q502.2656,668.5781 501.4219,669.2188 Q500.0156,670.2344 497.2813,670.2344 Q495.0938,670.2344 493.625,668.7656 Q491.9219,667.0625 491.9219,663.875 Q491.9219,660.9375 493.6094,659.1406 Q495.1563,657.5156 497.375,657.5156 Q499.25,657.5156 500.2344,657.8125 Q501.2188,658.1094 501.2188,658.1094 Q501.2188,658.1094 501.2188,657.5469 L502.2344,657.4531 L502.3906,661.5156 L501.0625,661.6406 Q500.25,658.0469 497.5156,658.0469 Q497.5156,658.0469 496.9219,658.3281 Q496.0156,658.6719 495.5,659.2188 Q494.125,660.7656 494.1094,663.9063 Q494.0938,666.6875 495.625,668.25 Q496.9219,669.5781 497.75,669.5781 Q499.7813,669.5781 501.9688,667.0156 L502.625,667.9531 Z "/><text fill="#000000" font-family="sans-serif" font-size="12" lengthAdjust="spacingAndGlyphs" textLength="93" x="512.5" y="669.9092">PokemonHelmet</text><line style="stroke: #A80036; stroke-width: 1.5;" x1="484.5" x2="607.5" y1="680" y2="680"/><line style="stroke: #A80036; stroke-width: 1.5;" x1="484.5" x2="607.5" y1="688" y2="688"/><!--class PokemonWeapon--><rect fill="#FEFECE" filter="url(#fmtwn1v8pwnym)" height="48" id="PokemonWeapon" style="stroke: #A80036; stroke-width: 1.5;" width="131" x="643.5" y="648"/><ellipse cx="658.5" cy="664" fill="#ADD1B2" rx="11" ry="11" style="stroke: #A80036; stroke-width: 1.0;"/><path d="M662.625,667.9531 Q662.2656,668.5781 661.4219,669.2188 Q660.0156,670.2344 657.2813,670.2344 Q655.0938,670.2344 653.625,668.7656 Q651.9219,667.0625 651.9219,663.875 Q651.9219,660.9375 653.6094,659.1406 Q655.1563,657.5156 657.375,657.5156 Q659.25,657.5156 660.2344,657.8125 Q661.2188,658.1094 661.2188,658.1094 Q661.2188,658.1094 661.2188,657.5469 L662.2344,657.4531 L662.3906,661.5156 L661.0625,661.6406 Q660.25,658.0469 657.5156,658.0469 Q657.5156,658.0469 656.9219,658.3281 Q656.0156,658.6719 655.5,659.2188 Q654.125,660.7656 654.1094,663.9063 Q654.0938,666.6875 655.625,668.25 Q656.9219,669.5781 657.75,669.5781 Q659.7813,669.5781 661.9688,667.0156 L662.625,667.9531 Z "/><text fill="#000000" font-family="sans-serif" font-size="12" lengthAdjust="spacingAndGlyphs" textLength="99" x="672.5" y="669.9092">PokemonWeapon</text><line style="stroke: #A80036; stroke-width: 1.5;" x1="644.5" x2="773.5" y1="680" y2="680"/><line style="stroke: #A80036; stroke-width: 1.5;" x1="644.5" x2="773.5" y1="688" y2="688"/><!--class WarcraftCosplayClothingFactory--><rect fill="#FEFECE" filter="url(#fmtwn1v8pwnym)" height="157.6724" id="WarcraftCosplayClothingFactory" style="stroke: #A80036; stroke-width: 1.5;" width="207" x="831.5" y="430"/><ellipse cx="846.5" cy="446" fill="#ADD1B2" rx="11" ry="11" style="stroke: #A80036; stroke-width: 1.0;"/><path d="M850.625,449.9531 Q850.2656,450.5781 849.4219,451.2188 Q848.0156,452.2344 845.2813,452.2344 Q843.0938,452.2344 841.625,450.7656 Q839.9219,449.0625 839.9219,445.875 Q839.9219,442.9375 841.6094,441.1406 Q843.1563,439.5156 845.375,439.5156 Q847.25,439.5156 848.2344,439.8125 Q849.2188,440.1094 849.2188,440.1094 Q849.2188,440.1094 849.2188,439.5469 L850.2344,439.4531 L850.3906,443.5156 L849.0625,443.6406 Q848.25,440.0469 845.5156,440.0469 Q845.5156,440.0469 844.9219,440.3281 Q844.0156,440.6719 843.5,441.2188 Q842.125,442.7656 842.1094,445.9063 Q842.0938,448.6875 843.625,450.25 Q844.9219,451.5781 845.75,451.5781 Q847.7813,451.5781 849.9688,449.0156 L850.625,449.9531 Z "/><text fill="#000000" font-family="sans-serif" font-size="12" lengthAdjust="spacingAndGlyphs" textLength="175" x="860.5" y="451.9092">WarcraftCosplayClothingFactory</text><line style="stroke: #A80036; stroke-width: 1.5;" x1="832.5" x2="1037.5" y1="462" y2="462"/><polygon fill="none" points="842.5,470.3337,846.5,474.3337,842.5,478.3337,838.5,474.3337" style="stroke: #B38D22; stroke-width: 1.0;"/><text fill="#000000" font-family="sans-serif" font-size="11" lengthAdjust="spacingAndGlyphs" textLength="48" x="851.5" y="479.2505">RoleName</text><line style="stroke: #A80036; stroke-width: 1.5;" x1="832.5" x2="1037.5" y1="485.6675" y2="485.6675"/><ellipse cx="842.5" cy="499.0012" fill="#84BE84" rx="3" ry="3" style="stroke: #038048; stroke-width: 1.0;"/><text fill="#000000" font-family="sans-serif" font-size="11" lengthAdjust="spacingAndGlyphs" textLength="165" x="851.5" y="502.918">WarcraftCosplayClothingFactory()</text><ellipse cx="842.5" cy="514.6687" fill="#84BE84" rx="3" ry="3" style="stroke: #038048; stroke-width: 1.0;"/><text fill="#000000" font-family="sans-serif" font-size="11" lengthAdjust="spacingAndGlyphs" textLength="64" x="851.5" y="518.5854">ProduceHat()</text><ellipse cx="842.5" cy="530.3362" fill="#84BE84" rx="3" ry="3" style="stroke: #038048; stroke-width: 1.0;"/><text fill="#000000" font-family="sans-serif" font-size="11" lengthAdjust="spacingAndGlyphs" textLength="80" x="851.5" y="534.2529">ProduceHelmet()</text><ellipse cx="842.5" cy="546.0037" fill="#84BE84" rx="3" ry="3" style="stroke: #038048; stroke-width: 1.0;"/><text fill="#000000" font-family="sans-serif" font-size="11" lengthAdjust="spacingAndGlyphs" textLength="78" x="851.5" y="549.9204">ProduceArmor()</text><ellipse cx="842.5" cy="561.6711" fill="#84BE84" rx="3" ry="3" style="stroke: #038048; stroke-width: 1.0;"/><text fill="#000000" font-family="sans-serif" font-size="11" lengthAdjust="spacingAndGlyphs" textLength="76" x="851.5" y="565.5879">ProduceBoots()</text><ellipse cx="842.5" cy="577.3386" fill="#84BE84" rx="3" ry="3" style="stroke: #038048; stroke-width: 1.0;"/><text fill="#000000" font-family="sans-serif" font-size="11" lengthAdjust="spacingAndGlyphs" textLength="88" x="851.5" y="581.2554">ProduceWeapon()</text><!--class WarcraftArmor--><rect fill="#FEFECE" filter="url(#fmtwn1v8pwnym)" height="48" id="WarcraftArmor" style="stroke: #A80036; stroke-width: 1.5;" width="110" x="831" y="648"/><ellipse cx="846" cy="664" fill="#ADD1B2" rx="11" ry="11" style="stroke: #A80036; stroke-width: 1.0;"/><path d="M850.125,667.9531 Q849.7656,668.5781 848.9219,669.2188 Q847.5156,670.2344 844.7813,670.2344 Q842.5938,670.2344 841.125,668.7656 Q839.4219,667.0625 839.4219,663.875 Q839.4219,660.9375 841.1094,659.1406 Q842.6563,657.5156 844.875,657.5156 Q846.75,657.5156 847.7344,657.8125 Q848.7188,658.1094 848.7188,658.1094 Q848.7188,658.1094 848.7188,657.5469 L849.7344,657.4531 L849.8906,661.5156 L848.5625,661.6406 Q847.75,658.0469 845.0156,658.0469 Q845.0156,658.0469 844.4219,658.3281 Q843.5156,658.6719 843,659.2188 Q841.625,660.7656 841.6094,663.9063 Q841.5938,666.6875 843.125,668.25 Q844.4219,669.5781 845.25,669.5781 Q847.2813,669.5781 849.4688,667.0156 L850.125,667.9531 Z "/><text fill="#000000" font-family="sans-serif" font-size="12" lengthAdjust="spacingAndGlyphs" textLength="78" x="860" y="669.9092">WarcraftArmor</text><line style="stroke: #A80036; stroke-width: 1.5;" x1="832" x2="940" y1="680" y2="680"/><line style="stroke: #A80036; stroke-width: 1.5;" x1="832" x2="940" y1="688" y2="688"/><!--class WarcraftBoots--><rect fill="#FEFECE" filter="url(#fmtwn1v8pwnym)" height="48" id="WarcraftBoots" style="stroke: #A80036; stroke-width: 1.5;" width="109" x="976.5" y="648"/><ellipse cx="991.5" cy="664" fill="#ADD1B2" rx="11" ry="11" style="stroke: #A80036; stroke-width: 1.0;"/><path d="M995.625,667.9531 Q995.2656,668.5781 994.4219,669.2188 Q993.0156,670.2344 990.2813,670.2344 Q988.0938,670.2344 986.625,668.7656 Q984.9219,667.0625 984.9219,663.875 Q984.9219,660.9375 986.6094,659.1406 Q988.1563,657.5156 990.375,657.5156 Q992.25,657.5156 993.2344,657.8125 Q994.2188,658.1094 994.2188,658.1094 Q994.2188,658.1094 994.2188,657.5469 L995.2344,657.4531 L995.3906,661.5156 L994.0625,661.6406 Q993.25,658.0469 990.5156,658.0469 Q990.5156,658.0469 989.9219,658.3281 Q989.0156,658.6719 988.5,659.2188 Q987.125,660.7656 987.1094,663.9063 Q987.0938,666.6875 988.625,668.25 Q989.9219,669.5781 990.75,669.5781 Q992.7813,669.5781 994.9688,667.0156 L995.625,667.9531 Z "/><text fill="#000000" font-family="sans-serif" font-size="12" lengthAdjust="spacingAndGlyphs" textLength="77" x="1005.5" y="669.9092">WarcraftBoots</text><line style="stroke: #A80036; stroke-width: 1.5;" x1="977.5" x2="1084.5" y1="680" y2="680"/><line style="stroke: #A80036; stroke-width: 1.5;" x1="977.5" x2="1084.5" y1="688" y2="688"/><!--class WarcraftHat--><rect fill="#FEFECE" filter="url(#fmtwn1v8pwnym)" height="48" id="WarcraftHat" style="stroke: #A80036; stroke-width: 1.5;" width="96" x="1121" y="648"/><ellipse cx="1136" cy="664" fill="#ADD1B2" rx="11" ry="11" style="stroke: #A80036; stroke-width: 1.0;"/><path d="M1140.125,667.9531 Q1139.7656,668.5781 1138.9219,669.2188 Q1137.5156,670.2344 1134.7813,670.2344 Q1132.5938,670.2344 1131.125,668.7656 Q1129.4219,667.0625 1129.4219,663.875 Q1129.4219,660.9375 1131.1094,659.1406 Q1132.6563,657.5156 1134.875,657.5156 Q1136.75,657.5156 1137.7344,657.8125 Q1138.7188,658.1094 1138.7188,658.1094 Q1138.7188,658.1094 1138.7188,657.5469 L1139.7344,657.4531 L1139.8906,661.5156 L1138.5625,661.6406 Q1137.75,658.0469 1135.0156,658.0469 Q1135.0156,658.0469 1134.4219,658.3281 Q1133.5156,658.6719 1133,659.2188 Q1131.625,660.7656 1131.6094,663.9063 Q1131.5938,666.6875 1133.125,668.25 Q1134.4219,669.5781 1135.25,669.5781 Q1137.2813,669.5781 1139.4688,667.0156 L1140.125,667.9531 Z "/><text fill="#000000" font-family="sans-serif" font-size="12" lengthAdjust="spacingAndGlyphs" textLength="64" x="1150" y="669.9092">WarcraftHat</text><line style="stroke: #A80036; stroke-width: 1.5;" x1="1122" x2="1216" y1="680" y2="680"/><line style="stroke: #A80036; stroke-width: 1.5;" x1="1122" x2="1216" y1="688" y2="688"/><!--class WarcraftHelmet--><rect fill="#FEFECE" filter="url(#fmtwn1v8pwnym)" height="48" id="WarcraftHelmet" style="stroke: #A80036; stroke-width: 1.5;" width="117" x="1252.5" y="648"/><ellipse cx="1267.5" cy="664" fill="#ADD1B2" rx="11" ry="11" style="stroke: #A80036; stroke-width: 1.0;"/><path d="M1271.625,667.9531 Q1271.2656,668.5781 1270.4219,669.2188 Q1269.0156,670.2344 1266.2813,670.2344 Q1264.0938,670.2344 1262.625,668.7656 Q1260.9219,667.0625 1260.9219,663.875 Q1260.9219,660.9375 1262.6094,659.1406 Q1264.1563,657.5156 1266.375,657.5156 Q1268.25,657.5156 1269.2344,657.8125 Q1270.2188,658.1094 1270.2188,658.1094 Q1270.2188,658.1094 1270.2188,657.5469 L1271.2344,657.4531 L1271.3906,661.5156 L1270.0625,661.6406 Q1269.25,658.0469 1266.5156,658.0469 Q1266.5156,658.0469 1265.9219,658.3281 Q1265.0156,658.6719 1264.5,659.2188 Q1263.125,660.7656 1263.1094,663.9063 Q1263.0938,666.6875 1264.625,668.25 Q1265.9219,669.5781 1266.75,669.5781 Q1268.7813,669.5781 1270.9688,667.0156 L1271.625,667.9531 Z "/><text fill="#000000" font-family="sans-serif" font-size="12" lengthAdjust="spacingAndGlyphs" textLength="85" x="1281.5" y="669.9092">WarcraftHelmet</text><line style="stroke: #A80036; stroke-width: 1.5;" x1="1253.5" x2="1368.5" y1="680" y2="680"/><line style="stroke: #A80036; stroke-width: 1.5;" x1="1253.5" x2="1368.5" y1="688" y2="688"/><!--class WarcraftWeapon--><rect fill="#FEFECE" filter="url(#fmtwn1v8pwnym)" height="48" id="WarcraftWeapon" style="stroke: #A80036; stroke-width: 1.5;" width="123" x="1404.5" y="648"/><ellipse cx="1419.5" cy="664" fill="#ADD1B2" rx="11" ry="11" style="stroke: #A80036; stroke-width: 1.0;"/><path d="M1423.625,667.9531 Q1423.2656,668.5781 1422.4219,669.2188 Q1421.0156,670.2344 1418.2813,670.2344 Q1416.0938,670.2344 1414.625,668.7656 Q1412.9219,667.0625 1412.9219,663.875 Q1412.9219,660.9375 1414.6094,659.1406 Q1416.1563,657.5156 1418.375,657.5156 Q1420.25,657.5156 1421.2344,657.8125 Q1422.2188,658.1094 1422.2188,658.1094 Q1422.2188,658.1094 1422.2188,657.5469 L1423.2344,657.4531 L1423.3906,661.5156 L1422.0625,661.6406 Q1421.25,658.0469 1418.5156,658.0469 Q1418.5156,658.0469 1417.9219,658.3281 Q1417.0156,658.6719 1416.5,659.2188 Q1415.125,660.7656 1415.1094,663.9063 Q1415.0938,666.6875 1416.625,668.25 Q1417.9219,669.5781 1418.75,669.5781 Q1420.7813,669.5781 1422.9688,667.0156 L1423.625,667.9531 Z "/><text fill="#000000" font-family="sans-serif" font-size="12" lengthAdjust="spacingAndGlyphs" textLength="91" x="1433.5" y="669.9092">WarcraftWeapon</text><line style="stroke: #A80036; stroke-width: 1.5;" x1="1405.5" x2="1526.5" y1="680" y2="680"/><line style="stroke: #A80036; stroke-width: 1.5;" x1="1405.5" x2="1526.5" y1="688" y2="688"/><!--class CosplayClothingStore--><rect fill="#FEFECE" filter="url(#fmtwn1v8pwnym)" height="157.6724" id="CosplayClothingStore" style="stroke: #A80036; stroke-width: 1.5;" width="152" x="819" y="8"/><ellipse cx="834" cy="24" fill="#ADD1B2" rx="11" ry="11" style="stroke: #A80036; stroke-width: 1.0;"/><path d="M838.125,27.9531 Q837.7656,28.5781 836.9219,29.2188 Q835.5156,30.2344 832.7813,30.2344 Q830.5938,30.2344 829.125,28.7656 Q827.4219,27.0625 827.4219,23.875 Q827.4219,20.9375 829.1094,19.1406 Q830.6563,17.5156 832.875,17.5156 Q834.75,17.5156 835.7344,17.8125 Q836.7188,18.1094 836.7188,18.1094 Q836.7188,18.1094 836.7188,17.5469 L837.7344,17.4531 L837.8906,21.5156 L836.5625,21.6406 Q835.75,18.0469 833.0156,18.0469 Q833.0156,18.0469 832.4219,18.3281 Q831.5156,18.6719 831,19.2188 Q829.625,20.7656 829.6094,23.9063 Q829.5938,26.6875 831.125,28.25 Q832.4219,29.5781 833.25,29.5781 Q835.2813,29.5781 837.4688,27.0156 L838.125,27.9531 Z "/><text fill="#000000" font-family="sans-serif" font-size="12" lengthAdjust="spacingAndGlyphs" textLength="120" x="848" y="29.9092">CosplayClothingStore</text><line style="stroke: #A80036; stroke-width: 1.5;" x1="820" x2="970" y1="40" y2="40"/><rect fill="none" height="6" style="stroke: #C82930; stroke-width: 1.0;" width="6" x="827" y="50.3337"/><text fill="#000000" font-family="sans-serif" font-size="11" lengthAdjust="spacingAndGlyphs" textLength="16" x="839" y="57.2505">Hat</text><rect fill="none" height="6" style="stroke: #C82930; stroke-width: 1.0;" width="6" x="827" y="66.0012"/><text fill="#000000" font-family="sans-serif" font-size="11" lengthAdjust="spacingAndGlyphs" textLength="32" x="839" y="72.918">Helmet</text><rect fill="none" height="6" style="stroke: #C82930; stroke-width: 1.0;" width="6" x="827" y="81.6687"/><text fill="#000000" font-family="sans-serif" font-size="11" lengthAdjust="spacingAndGlyphs" textLength="30" x="839" y="88.5854">Armor</text><rect fill="none" height="6" style="stroke: #C82930; stroke-width: 1.0;" width="6" x="827" y="97.3362"/><text fill="#000000" font-family="sans-serif" font-size="11" lengthAdjust="spacingAndGlyphs" textLength="28" x="839" y="104.2529">Boots</text><rect fill="none" height="6" style="stroke: #C82930; stroke-width: 1.0;" width="6" x="827" y="113.0037"/><text fill="#000000" font-family="sans-serif" font-size="11" lengthAdjust="spacingAndGlyphs" textLength="40" x="839" y="119.9204">Weapon</text><line style="stroke: #A80036; stroke-width: 1.5;" x1="820" x2="970" y1="126.3374" y2="126.3374"/><ellipse cx="830" cy="139.6711" fill="#84BE84" rx="3" ry="3" style="stroke: #038048; stroke-width: 1.0;"/><text fill="#000000" font-family="sans-serif" font-size="11" lengthAdjust="spacingAndGlyphs" textLength="111" x="839" y="143.5879">CosplayClothingStore()</text><ellipse cx="830" cy="155.3386" fill="#84BE84" rx="3" ry="3" style="stroke: #038048; stroke-width: 1.0;"/><text fill="#000000" font-family="sans-serif" font-size="11" lengthAdjust="spacingAndGlyphs" textLength="111" x="839" y="159.2554">OutputClothingOfRole()</text><!--link AbstractCosplayClothingFactory to PokemonCosplayClothingFactory--><path d="M396.652,370.613 C387.692,389.951 378.139,410.571 369.231,429.797 " fill="none" id="AbstractCosplayClothingFactory-PokemonCosplayClothingFactory" style="stroke: #A80036; stroke-width: 1.0;"/><polygon fill="none" points="390.434,367.383,405.193,352.178,403.136,373.268,390.434,367.383" style="stroke: #A80036; stroke-width: 1.0;"/><!--link AbstractCosplayClothingFactory to WarcraftCosplayClothingFactory--><path d="M525.465,362.479 C535.375,367.85 545.636,372.519 556,376 C605.533,392.636 742.33,364.984 791,384 C817.274,394.265 842.06,411.505 863.422,429.916 " fill="none" id="AbstractCosplayClothingFactory-WarcraftCosplayClothingFactory" style="stroke: #A80036; stroke-width: 1.0;"/><polygon fill="none" points="521.69,368.379,508.057,352.158,528.83,356.337,521.69,368.379" style="stroke: #A80036; stroke-width: 1.0;"/><!--link AbstractArmor to PokemonArmor--><path d="M585.495,350.825 C575.77,359.804 565.424,368.533 555,376 C548.537,380.63 544.376,378.143 539,384 C473.038,455.871 532.58,525.117 458,588 C359.372,671.1605 299.022,616.178 174,648 C168.186,649.4798 162.153,651.1114 156.138,652.802 " fill="none" id="AbstractArmor-PokemonArmor" style="stroke: #A80036; stroke-width: 1.0;"/><polygon fill="none" points="580.934,345.499,600.189,336.653,590.653,355.575,580.934,345.499" style="stroke: #A80036; stroke-width: 1.0;"/><!--link AbstractBoots to PokemonBoots--><path d="M764.111,351.123 C753.29,361.033 741.102,369.999 728,376 C704.104,386.944 631.362,368.689 610,384 C530.165,441.218 597.902,522.176 525,588 C456.436,649.9073 414.431,621.288 326,648 C320.326,649.7141 314.413,651.5013 308.503,653.2886 " fill="none" id="AbstractBoots-PokemonBoots" style="stroke: #A80036; stroke-width: 1.0;"/><polygon fill="none" points="759.389,345.944,778.453,336.694,769.318,355.814,759.389,345.944" style="stroke: #A80036; stroke-width: 1.0;"/><!--link AbstractHat to PokemonHat--><path d="M932.249,351.445 C922.138,361.311 910.616,370.179 898,376 C876.092,386.109 700.882,370.332 681,384 C599.775,439.84 663.913,518.518 594,588 C572.652,609.217 499.438,636.6965 448.295,654.0933 " fill="none" id="AbstractHat-PokemonHat" style="stroke: #A80036; stroke-width: 1.0;"/><polygon fill="none" points="927.311,346.474,946.015,336.515,937.604,355.964,927.311,346.474" style="stroke: #A80036; stroke-width: 1.0;"/><!--link AbstractHelmet to PokemonHelmet--><path d="M1093.68,350.939 C1082.42,361.066 1069.7,370.16 1056,376 C1024.92,389.25 779.984,365.063 752,384 C670.222,439.34 726.283,511.378 664,588 C643.857,612.78 614.509,633.4653 590.12,647.9875 " fill="none" id="AbstractHelmet-PokemonHelmet" style="stroke: #A80036; stroke-width: 1.0;"/><polygon fill="none" points="1088.92,345.793,1108.06,336.699,1098.77,355.744,1088.92,345.793" style="stroke: #A80036; stroke-width: 1.0;"/><!--link AbstractWeapon to PokemonWeapon--><path d="M1269.46,350.705 C1257.62,360.961 1244.27,370.164 1230,376 C1208.66,384.729 833.793,370.636 815,384 C792.328,400.122 735.774,582.064 715.977,647.6284 " fill="none" id="AbstractWeapon-PokemonWeapon" style="stroke: #A80036; stroke-width: 1.0;"/><polygon fill="none" points="1264.78,345.495,1284.11,336.81,1274.41,355.652,1264.78,345.495" style="stroke: #A80036; stroke-width: 1.0;"/><!--link AbstractArmor to WarcraftArmor--><path d="M690.652,350.951 C701.784,361.077 714.39,370.167 728,376 C744.754,383.18 1043.27,370.955 1056,384 C1119.32,448.888 1104.03,511.101 1056,588 C1042.82,609.101 985.702,634.2958 941.266,651.3486 " fill="none" id="AbstractArmor-WarcraftArmor" style="stroke: #A80036; stroke-width: 1.0;"/><polygon fill="none" points="685.61,355.809,676.43,336.711,695.516,345.916,685.61,355.809" style="stroke: #A80036; stroke-width: 1.0;"/><!--link AbstractBoots to WarcraftBoots--><path d="M861.043,350.815 C872.049,360.951 884.521,370.081 898,376 C920.396,385.835 1101.02,366.392 1118,384 C1180.94,449.266 1153.68,504.649 1118,588 C1107.48,612.564 1085.73,633.3144 1066.61,647.9233 " fill="none" id="AbstractBoots-WarcraftBoots" style="stroke: #A80036; stroke-width: 1.0;"/><polygon fill="none" points="856.055,355.726,846.987,336.574,866.019,345.891,856.055,355.726" style="stroke: #A80036; stroke-width: 1.0;"/><!--link AbstractHat to WarcraftHat--><path d="M1022.16,351.501 C1032.19,361.272 1043.58,370.091 1056,376 C1069.37,382.359 1178.85,373.222 1189,384 C1258.17,457.453 1205.73,593.68 1180.53,647.8822 " fill="none" id="AbstractHat-WarcraftHat" style="stroke: #A80036; stroke-width: 1.0;"/><polygon fill="none" points="1016.93,356.16,1008.48,336.731,1027.2,346.646,1016.93,356.16" style="stroke: #A80036; stroke-width: 1.0;"/><!--link AbstractHelmet to WarcraftHelmet--><path d="M1196.26,350.945 C1206.69,360.355 1218.11,369.192 1230,376 C1241.97,382.858 1250.66,373.838 1260,384 C1328.99,459.095 1320.97,593.782 1314.43,647.7263 " fill="none" id="AbstractHelmet-WarcraftHelmet" style="stroke: #A80036; stroke-width: 1.0;"/><polygon fill="none" points="1191.26,355.846,1181.74,336.915,1200.99,345.778,1191.26,355.846" style="stroke: #A80036; stroke-width: 1.0;"/><!--link AbstractWeapon to WarcraftWeapon--><path d="M1345.95,355.546 C1378.99,442.364 1435.61,591.136 1457.24,647.9893 " fill="none" id="AbstractWeapon-WarcraftWeapon" style="stroke: #A80036; stroke-width: 1.0;"/><polygon fill="none" points="1339.35,357.9,1338.78,336.718,1352.44,352.92,1339.35,357.9" style="stroke: #A80036; stroke-width: 1.0;"/><!--link PokemonCosplayClothingFactory to PokemonArmor--><path d="M225.359,583.433 C193.067,605.463 159.732,628.2042 135.128,644.989 " fill="none" id="PokemonCosplayClothingFactory-PokemonArmor" style="stroke: #A80036; stroke-width: 1.0;"/><polygon fill="#A80036" points="130.947,647.8409,140.6361,646.0743,135.0777,645.0236,136.1284,639.4652,130.947,647.8409" style="stroke: #A80036; stroke-width: 1.0;"/><!--link PokemonCosplayClothingFactory to PokemonBoots--><path d="M292.716,588.142 C282.534,607.891 272.256,627.83 264.333,643.1975 " fill="none" id="PokemonCosplayClothingFactory-PokemonBoots" style="stroke: #A80036; stroke-width: 1.0;"/><polygon fill="#A80036" points="261.953,647.8148,269.6323,641.6481,264.2441,643.3706,262.5216,637.9824,261.953,647.8148" style="stroke: #A80036; stroke-width: 1.0;"/><!--link PokemonCosplayClothingFactory to PokemonHat--><path d="M363.577,588.142 C371.239,607.721 378.973,627.486 384.965,642.799 " fill="none" id="PokemonCosplayClothingFactory-PokemonHat" style="stroke: #A80036; stroke-width: 1.0;"/><polygon fill="#A80036" points="386.928,647.8148,387.373,637.976,385.1058,643.1587,379.9232,640.8915,386.928,647.8148" style="stroke: #A80036; stroke-width: 1.0;"/><!--link PokemonCosplayClothingFactory to PokemonHelmet--><path d="M436.38,588.142 C463.409,608.572 490.706,629.2048 511.299,644.7707 " fill="none" id="PokemonCosplayClothingFactory-PokemonHelmet" style="stroke: #A80036; stroke-width: 1.0;"/><polygon fill="#A80036" points="515.326,647.8148,510.5592,639.1964,511.3376,644.7994,505.7345,645.5778,515.326,647.8148" style="stroke: #A80036; stroke-width: 1.0;"/><!--link PokemonCosplayClothingFactory to PokemonWeapon--><path d="M440.747,556.136 C509.029,585.374 594.699,622.057 650.596,645.9918 " fill="none" id="PokemonCosplayClothingFactory-PokemonWeapon" style="stroke: #A80036; stroke-width: 1.0;"/><polygon fill="#A80036" points="655.238,647.9798,648.5397,640.7595,650.6418,646.0113,645.39,648.1134,655.238,647.9798" style="stroke: #A80036; stroke-width: 1.0;"/><!--link WarcraftCosplayClothingFactory to WarcraftArmor--><path d="M911.218,588.142 C905.259,607.721 899.243,627.486 894.583,642.799 " fill="none" id="WarcraftCosplayClothingFactory-WarcraftArmor" style="stroke: #A80036; stroke-width: 1.0;"/><polygon fill="#A80036" points="893.056,647.8148,899.5034,640.3696,894.512,643.0315,891.8501,638.04,893.056,647.8148" style="stroke: #A80036; stroke-width: 1.0;"/><!--link WarcraftCosplayClothingFactory to WarcraftBoots--><path d="M981.594,588.142 C993.37,607.891 1005.259,627.83 1014.42,643.1975 " fill="none" id="WarcraftCosplayClothingFactory-WarcraftBoots" style="stroke: #A80036; stroke-width: 1.0;"/><polygon fill="#A80036" points="1017.18,647.8148,1016.0118,638.0355,1014.6217,643.5189,1009.1383,642.1287,1017.18,647.8148" style="stroke: #A80036; stroke-width: 1.0;"/><!--link WarcraftCosplayClothingFactory to WarcraftHat--><path d="M1038.66,581.32 C1071.59,603.981 1105.96,627.624 1131.13,644.9421 " fill="none" id="WarcraftCosplayClothingFactory-WarcraftHat" style="stroke: #A80036; stroke-width: 1.0;"/><polygon fill="#A80036" points="1135.4,647.8828,1130.2451,639.4907,1131.2782,645.0524,1125.7165,646.0855,1135.4,647.8828" style="stroke: #A80036; stroke-width: 1.0;"/><!--link WarcraftCosplayClothingFactory to WarcraftHelmet--><path d="M1038.74,554.42 C1107.56,583.888 1195.37,621.489 1252.37,645.8968 " fill="none" id="WarcraftCosplayClothingFactory-WarcraftHelmet" style="stroke: #A80036; stroke-width: 1.0;"/><polygon fill="#A80036" points="1257.11,647.9236,1250.4155,640.6998,1252.5149,645.9527,1247.262,648.052,1257.11,647.9236" style="stroke: #A80036; stroke-width: 1.0;"/><!--link WarcraftCosplayClothingFactory to WarcraftWeapon--><path d="M1038.64,541.425 C1145.54,573.835 1309.03,623.407 1399.68,650.8903 " fill="none" id="WarcraftCosplayClothingFactory-WarcraftWeapon" style="stroke: #A80036; stroke-width: 1.0;"/><polygon fill="#A80036" points="1404.47,652.3441,1397.008,645.9161,1399.6829,650.9006,1394.6984,653.5755,1404.47,652.3441" style="stroke: #A80036; stroke-width: 1.0;"/><!--link CosplayClothingStore to AbstractCosplayClothingFactory--><path d="M818.898,98.41 C747.637,110.466 639.858,134.753 556,180 C535.17,191.239 514.924,206.669 497.104,222.349 " fill="none" id="CosplayClothingStore-AbstractCosplayClothingFactory" style="stroke: #A80036; stroke-width: 1.0; stroke-dasharray: 7.0,7.0;"/><polygon fill="#A80036" points="493.104,225.909,502.4866,222.9145,496.8393,222.5852,497.1685,216.938,493.104,225.909" style="stroke: #A80036; stroke-width: 1.0;"/><!--link CosplayClothingStore to AbstractArmor--><path d="M818.645,122.005 C788.684,137.338 755.069,157.158 728,180 C708.586,196.383 690.507,217.712 675.984,237.083 " fill="none" id="CosplayClothingStore-AbstractArmor" style="stroke: #A80036; stroke-width: 1.0;"/><polygon fill="#A80036" points="672.752,241.442,681.3264,236.5964,675.7307,237.4261,674.9009,231.8304,672.752,241.442" style="stroke: #A80036; stroke-width: 1.0;"/><!--link CosplayClothingStore to AbstractBoots--><path d="M862.944,166.185 C853.256,189.815 842.867,215.154 834.087,236.568 " fill="none" id="CosplayClothingStore-AbstractBoots" style="stroke: #A80036; stroke-width: 1.0;"/><polygon fill="#A80036" points="832.123,241.357,839.2382,234.5472,834.0198,236.7307,831.8362,231.5123,832.123,241.357" style="stroke: #A80036; stroke-width: 1.0;"/><!--link CosplayClothingStore to AbstractHat--><path d="M927.056,166.185 C936.744,189.815 947.133,215.154 955.913,236.568 " fill="none" id="CosplayClothingStore-AbstractHat" style="stroke: #A80036; stroke-width: 1.0;"/><polygon fill="#A80036" points="957.877,241.357,958.1638,231.5123,955.9802,236.7307,950.7618,234.5472,957.877,241.357" style="stroke: #A80036; stroke-width: 1.0;"/><!--link CosplayClothingStore to AbstractHelmet--><path d="M971.335,124.034 C999.473,139.209 1030.64,158.385 1056,180 C1075.33,196.481 1093.51,217.725 1108.2,237.005 " fill="none" id="CosplayClothingStore-AbstractHelmet" style="stroke: #A80036; stroke-width: 1.0;"/><polygon fill="#A80036" points="1111.47,241.342,1109.2547,231.7455,1108.4636,237.3468,1102.8623,236.5557,1111.47,241.342" style="stroke: #A80036; stroke-width: 1.0;"/><!--link CosplayClothingStore to AbstractWeapon--><path d="M971.11,95.782 C1042.66,105.991 1150.37,129.037 1230,180 C1252.85,194.621 1272.94,216.773 1288.39,237.217 " fill="none" id="CosplayClothingStore-AbstractWeapon" style="stroke: #A80036; stroke-width: 1.0;"/><polygon fill="#A80036" points="1291.42,241.281,1289.254,231.6733,1288.4342,237.2704,1282.837,236.4506,1291.42,241.281" style="stroke: #A80036; stroke-width: 1.0;"/><!--
@startuml Homework06ClassDiagram

package Abstract{
    abstract class AbstractCosplayClothingFactory {
        + ProduceHat()
        + ProduceHelmet()
        + ProduceArmor()
        + ProduceBoots()
        + ProduceWeapon()
    }

    abstract class AbstractArmor {
        # RoleName
        + AbstractArmor()
        + ProduceArmorOfRole()
    }

    abstract class AbstractBoots {
        # RoleName
        + AbstractBoots()
        + ProduceBootsOfRole()
    }

    abstract class AbstractHat {
        # RoleName
        + AbstractHat()
        + ProduceHatOfRole()
    }

    abstract class AbstractHelmet {
        # RoleName
        + AbstractHelmet()
        + ProduceHelmetOfRole()
    }

    abstract class AbstractWeapon {
        # RoleName
        + AbstractWeapon()
        + ProduceWeaponOfRole()
    }
}
package Pokemon{
    class PokemonCosplayClothingFactory {
        # RoleName
        + PokemonCosplayClothingFactory()
        + ProduceHat()
        + ProduceHelmet()
        + ProduceArmor()
        + ProduceBoots()
        + ProduceWeapon()
    }

    class PokemonArmor {
        
    }

    class PokemonBoots {
        
    }

    class PokemonHat {
        
    }

    class PokemonHelmet {
        
    }

    class PokemonWeapon {
        
    }
}

package Warcraft{
    class WarcraftCosplayClothingFactory {
        # RoleName
        + WarcraftCosplayClothingFactory()
        + ProduceHat()
        + ProduceHelmet()
        + ProduceArmor()
        + ProduceBoots()
        + ProduceWeapon()
    }

    class WarcraftArmor {
        
    }

    class WarcraftBoots {
        
    }

    class WarcraftHat {
        
    }

    class WarcraftHelmet {
        
    }

    class WarcraftWeapon {
        
    }
}

class CosplayClothingStore {
    - Hat
    - Helmet
    - Armor
    - Boots
    - Weapon
    + CosplayClothingStore()
    + OutputClothingOfRole()
}

AbstractCosplayClothingFactory <|- - PokemonCosplayClothingFactory
AbstractCosplayClothingFactory <|- - WarcraftCosplayClothingFactory

AbstractArmor <|- - PokemonArmor
AbstractBoots <|- - PokemonBoots
AbstractHat <|- - PokemonHat
AbstractHelmet <|- - PokemonHelmet
AbstractWeapon <|- - PokemonWeapon

AbstractArmor <|- - WarcraftArmor
AbstractBoots <|- - WarcraftBoots
AbstractHat <|- - WarcraftHat
AbstractHelmet <|- - WarcraftHelmet
AbstractWeapon <|- - WarcraftWeapon

PokemonCosplayClothingFactory - -> PokemonArmor
PokemonCosplayClothingFactory - -> PokemonBoots
PokemonCosplayClothingFactory - -> PokemonHat
PokemonCosplayClothingFactory - -> PokemonHelmet
PokemonCosplayClothingFactory - -> PokemonWeapon

WarcraftCosplayClothingFactory - -> WarcraftArmor
WarcraftCosplayClothingFactory - -> WarcraftBoots
WarcraftCosplayClothingFactory - -> WarcraftHat
WarcraftCosplayClothingFactory - -> WarcraftHelmet
WarcraftCosplayClothingFactory - -> WarcraftWeapon

CosplayClothingStore ..> AbstractCosplayClothingFactory
CosplayClothingStore - -> AbstractArmor
CosplayClothingStore - -> AbstractBoots
CosplayClothingStore - -> AbstractHat
CosplayClothingStore - -> AbstractHelmet
CosplayClothingStore - -> AbstractWeapon
@enduml

PlantUML version 1.2017.20(Tue Dec 12 00:57:05 CST 2017)
(GPL source distribution)
Java Runtime: Java(TM) SE Runtime Environment
JVM: Java HotSpot(TM) 64-Bit Server VM
Java Version: 9.0.1+11
Operating System: Windows 10
OS Version: 10.0
Default Encoding: MS950
Language: zh
Country: TW
--></g></svg>