<?xml version="1.0" encoding="UTF-8" standalone="no"?><svg xmlns="http://www.w3.org/2000/svg" xmlns:xlink="http://www.w3.org/1999/xlink" contentScriptType="application/ecmascript" contentStyleType="text/css" height="330px" preserveAspectRatio="none" style="width:782px;height:330px;" version="1.1" viewBox="0 0 782 330" width="782px" zoomAndPan="magnify"><defs><filter height="300%" id="f1igli3tsqi9h3" width="300%" x="-1" y="-1"><feGaussianBlur result="blurOut" stdDeviation="2.0"/><feColorMatrix in="blurOut" result="blurOut2" type="matrix" values="0 0 0 0 0 0 0 0 0 0 0 0 0 0 0 0 0 0 .4 0"/><feOffset dx="4.0" dy="4.0" in="blurOut2" result="blurOut3"/><feBlend in="SourceGraphic" in2="blurOut3" mode="normal"/></filter></defs><g><!--class IBank--><rect fill="#FEFECE" filter="url(#f1igli3tsqi9h3)" height="63.6675" id="IBank" style="stroke: #A80036; stroke-width: 1.5;" width="124" x="165" y="132"/><ellipse cx="206.55" cy="148" fill="#B4A7E5" rx="11" ry="11" style="stroke: #A80036; stroke-width: 1.0;"/><path d="M209.55,154.0156 L203.8,154.0156 L203.8,153.6875 Q204.8938,153.625 205.2844,153.2656 Q205.675,152.9063 205.675,151.9063 L205.675,143.9375 Q205.675,142.9063 205.2531,142.5313 Q204.8938,142.2031 203.8,142.1406 L203.8,141.8125 L209.55,141.8125 L209.55,142.1406 Q208.5344,142.1875 208.1594,142.4688 Q207.6594,142.875 207.6594,143.9375 L207.6594,151.9063 Q207.6594,152.9531 208.1594,153.3281 Q208.5344,153.6406 209.55,153.6875 L209.55,154.0156 Z "/><text fill="#000000" font-family="sans-serif" font-size="12" font-style="italic" lengthAdjust="spacingAndGlyphs" textLength="33" x="226.45" y="153.9092">IBank</text><line style="stroke: #A80036; stroke-width: 1.5;" x1="166" x2="288" y1="164" y2="164"/><line style="stroke: #A80036; stroke-width: 1.5;" x1="166" x2="288" y1="172" y2="172"/><ellipse cx="176" cy="185.3337" fill="#84BE84" rx="3" ry="3" style="stroke: #038048; stroke-width: 1.0;"/><text fill="#000000" font-family="sans-serif" font-size="11" lengthAdjust="spacingAndGlyphs" textLength="98" x="185" y="189.2505">VerifyCardNumber()</text><!--class IBankFactory--><rect fill="#FEFECE" filter="url(#f1igli3tsqi9h3)" height="63.6675" id="IBankFactory" style="stroke: #A80036; stroke-width: 1.5;" width="115" x="418.5" y="8"/><ellipse cx="438" cy="24" fill="#B4A7E5" rx="11" ry="11" style="stroke: #A80036; stroke-width: 1.0;"/><path d="M441,30.0156 L435.25,30.0156 L435.25,29.6875 Q436.3438,29.625 436.7344,29.2656 Q437.125,28.9063 437.125,27.9063 L437.125,19.9375 Q437.125,18.9063 436.7031,18.5313 Q436.3438,18.2031 435.25,18.1406 L435.25,17.8125 L441,17.8125 L441,18.1406 Q439.9844,18.1875 439.6094,18.4688 Q439.1094,18.875 439.1094,19.9375 L439.1094,27.9063 Q439.1094,28.9531 439.6094,29.3281 Q439.9844,29.6406 441,29.6875 L441,30.0156 Z "/><text fill="#000000" font-family="sans-serif" font-size="12" font-style="italic" lengthAdjust="spacingAndGlyphs" textLength="73" x="453" y="29.9092">IBankFactory</text><line style="stroke: #A80036; stroke-width: 1.5;" x1="419.5" x2="532.5" y1="40" y2="40"/><line style="stroke: #A80036; stroke-width: 1.5;" x1="419.5" x2="532.5" y1="48" y2="48"/><ellipse cx="429.5" cy="61.3337" fill="#84BE84" rx="3" ry="3" style="stroke: #038048; stroke-width: 1.0;"/><text fill="#000000" font-family="sans-serif" font-size="11" lengthAdjust="spacingAndGlyphs" textLength="89" x="438.5" y="65.2505">VerifyCreditCard()</text><!--class CathayBankFactory--><rect fill="#FEFECE" filter="url(#f1igli3tsqi9h3)" height="63.6675" id="CathayBankFactory" style="stroke: #A80036; stroke-width: 1.5;" width="137" x="324.5" y="132"/><ellipse cx="339.5" cy="148" fill="#ADD1B2" rx="11" ry="11" style="stroke: #A80036; stroke-width: 1.0;"/><path d="M343.625,151.9531 Q343.2656,152.5781 342.4219,153.2188 Q341.0156,154.2344 338.2813,154.2344 Q336.0938,154.2344 334.625,152.7656 Q332.9219,151.0625 332.9219,147.875 Q332.9219,144.9375 334.6094,143.1406 Q336.1563,141.5156 338.375,141.5156 Q340.25,141.5156 341.2344,141.8125 Q342.2188,142.1094 342.2188,142.1094 Q342.2188,142.1094 342.2188,141.5469 L343.2344,141.4531 L343.3906,145.5156 L342.0625,145.6406 Q341.25,142.0469 338.5156,142.0469 Q338.5156,142.0469 337.9219,142.3281 Q337.0156,142.6719 336.5,143.2188 Q335.125,144.7656 335.1094,147.9063 Q335.0938,150.6875 336.625,152.25 Q337.9219,153.5781 338.75,153.5781 Q340.7813,153.5781 342.9688,151.0156 L343.625,151.9531 Z "/><text fill="#000000" font-family="sans-serif" font-size="12" lengthAdjust="spacingAndGlyphs" textLength="105" x="353.5" y="153.9092">CathayBankFactory</text><line style="stroke: #A80036; stroke-width: 1.5;" x1="325.5" x2="460.5" y1="164" y2="164"/><line style="stroke: #A80036; stroke-width: 1.5;" x1="325.5" x2="460.5" y1="172" y2="172"/><ellipse cx="335.5" cy="185.3337" fill="#84BE84" rx="3" ry="3" style="stroke: #038048; stroke-width: 1.0;"/><text fill="#000000" font-family="sans-serif" font-size="11" lengthAdjust="spacingAndGlyphs" textLength="89" x="344.5" y="189.2505">VerifyCreditCard()</text><!--class CtbcBankFactory--><rect fill="#FEFECE" filter="url(#f1igli3tsqi9h3)" height="63.6675" id="CtbcBankFactory" style="stroke: #A80036; stroke-width: 1.5;" width="124" x="497" y="132"/><ellipse cx="512" cy="148" fill="#ADD1B2" rx="11" ry="11" style="stroke: #A80036; stroke-width: 1.0;"/><path d="M516.125,151.9531 Q515.7656,152.5781 514.9219,153.2188 Q513.5156,154.2344 510.7813,154.2344 Q508.5938,154.2344 507.125,152.7656 Q505.4219,151.0625 505.4219,147.875 Q505.4219,144.9375 507.1094,143.1406 Q508.6563,141.5156 510.875,141.5156 Q512.75,141.5156 513.7344,141.8125 Q514.7188,142.1094 514.7188,142.1094 Q514.7188,142.1094 514.7188,141.5469 L515.7344,141.4531 L515.8906,145.5156 L514.5625,145.6406 Q513.75,142.0469 511.0156,142.0469 Q511.0156,142.0469 510.4219,142.3281 Q509.5156,142.6719 509,143.2188 Q507.625,144.7656 507.6094,147.9063 Q507.5938,150.6875 509.125,152.25 Q510.4219,153.5781 511.25,153.5781 Q513.2813,153.5781 515.4688,151.0156 L516.125,151.9531 Z "/><text fill="#000000" font-family="sans-serif" font-size="12" lengthAdjust="spacingAndGlyphs" textLength="92" x="526" y="153.9092">CtbcBankFactory</text><line style="stroke: #A80036; stroke-width: 1.5;" x1="498" x2="620" y1="164" y2="164"/><line style="stroke: #A80036; stroke-width: 1.5;" x1="498" x2="620" y1="172" y2="172"/><ellipse cx="508" cy="185.3337" fill="#84BE84" rx="3" ry="3" style="stroke: #038048; stroke-width: 1.0;"/><text fill="#000000" font-family="sans-serif" font-size="11" lengthAdjust="spacingAndGlyphs" textLength="89" x="517" y="189.2505">VerifyCreditCard()</text><!--class NcccFactory--><rect fill="#FEFECE" filter="url(#f1igli3tsqi9h3)" height="63.6675" id="NcccFactory" style="stroke: #A80036; stroke-width: 1.5;" width="115" x="656.5" y="132"/><ellipse cx="679.15" cy="148" fill="#ADD1B2" rx="11" ry="11" style="stroke: #A80036; stroke-width: 1.0;"/><path d="M683.275,151.9531 Q682.9156,152.5781 682.0719,153.2188 Q680.6656,154.2344 677.9313,154.2344 Q675.7438,154.2344 674.275,152.7656 Q672.5719,151.0625 672.5719,147.875 Q672.5719,144.9375 674.2594,143.1406 Q675.8063,141.5156 678.025,141.5156 Q679.9,141.5156 680.8844,141.8125 Q681.8688,142.1094 681.8688,142.1094 Q681.8688,142.1094 681.8688,141.5469 L682.8844,141.4531 L683.0406,145.5156 L681.7125,145.6406 Q680.9,142.0469 678.1656,142.0469 Q678.1656,142.0469 677.5719,142.3281 Q676.6656,142.6719 676.15,143.2188 Q674.775,144.7656 674.7594,147.9063 Q674.7438,150.6875 676.275,152.25 Q677.5719,153.5781 678.4,153.5781 Q680.4313,153.5781 682.6188,151.0156 L683.275,151.9531 Z "/><text fill="#000000" font-family="sans-serif" font-size="12" lengthAdjust="spacingAndGlyphs" textLength="66" x="694.85" y="153.9092">NcccFactory</text><line style="stroke: #A80036; stroke-width: 1.5;" x1="657.5" x2="770.5" y1="164" y2="164"/><line style="stroke: #A80036; stroke-width: 1.5;" x1="657.5" x2="770.5" y1="172" y2="172"/><ellipse cx="667.5" cy="185.3337" fill="#84BE84" rx="3" ry="3" style="stroke: #038048; stroke-width: 1.0;"/><text fill="#000000" font-family="sans-serif" font-size="11" lengthAdjust="spacingAndGlyphs" textLength="89" x="676.5" y="189.2505">VerifyCreditCard()</text><!--class CathayBank--><rect fill="#FEFECE" filter="url(#f1igli3tsqi9h3)" height="63.6675" id="CathayBank" style="stroke: #A80036; stroke-width: 1.5;" width="124" x="6" y="256"/><ellipse cx="32.7" cy="272" fill="#ADD1B2" rx="11" ry="11" style="stroke: #A80036; stroke-width: 1.0;"/><path d="M36.825,275.9531 Q36.4656,276.5781 35.6219,277.2188 Q34.2156,278.2344 31.4813,278.2344 Q29.2938,278.2344 27.825,276.7656 Q26.1219,275.0625 26.1219,271.875 Q26.1219,268.9375 27.8094,267.1406 Q29.3563,265.5156 31.575,265.5156 Q33.45,265.5156 34.4344,265.8125 Q35.4188,266.1094 35.4188,266.1094 Q35.4188,266.1094 35.4188,265.5469 L36.4344,265.4531 L36.5906,269.5156 L35.2625,269.6406 Q34.45,266.0469 31.7156,266.0469 Q31.7156,266.0469 31.1219,266.3281 Q30.2156,266.6719 29.7,267.2188 Q28.325,268.7656 28.3094,271.9063 Q28.2938,274.6875 29.825,276.25 Q31.1219,277.5781 31.95,277.5781 Q33.9813,277.5781 36.1688,275.0156 L36.825,275.9531 Z "/><text fill="#000000" font-family="sans-serif" font-size="12" lengthAdjust="spacingAndGlyphs" textLength="66" x="49.3" y="277.9092">CathayBank</text><line style="stroke: #A80036; stroke-width: 1.5;" x1="7" x2="129" y1="288" y2="288"/><line style="stroke: #A80036; stroke-width: 1.5;" x1="7" x2="129" y1="296" y2="296"/><ellipse cx="17" cy="309.3337" fill="#84BE84" rx="3" ry="3" style="stroke: #038048; stroke-width: 1.0;"/><text fill="#000000" font-family="sans-serif" font-size="11" lengthAdjust="spacingAndGlyphs" textLength="98" x="26" y="313.2505">VerifyCardNumber()</text><!--class CtbcBank--><rect fill="#FEFECE" filter="url(#f1igli3tsqi9h3)" height="63.6675" id="CtbcBank" style="stroke: #A80036; stroke-width: 1.5;" width="124" x="165" y="256"/><ellipse cx="197.55" cy="272" fill="#ADD1B2" rx="11" ry="11" style="stroke: #A80036; stroke-width: 1.0;"/><path d="M201.675,275.9531 Q201.3156,276.5781 200.4719,277.2188 Q199.0656,278.2344 196.3313,278.2344 Q194.1438,278.2344 192.675,276.7656 Q190.9719,275.0625 190.9719,271.875 Q190.9719,268.9375 192.6594,267.1406 Q194.2063,265.5156 196.425,265.5156 Q198.3,265.5156 199.2844,265.8125 Q200.2688,266.1094 200.2688,266.1094 Q200.2688,266.1094 200.2688,265.5469 L201.2844,265.4531 L201.4406,269.5156 L200.1125,269.6406 Q199.3,266.0469 196.5656,266.0469 Q196.5656,266.0469 195.9719,266.3281 Q195.0656,266.6719 194.55,267.2188 Q193.175,268.7656 193.1594,271.9063 Q193.1438,274.6875 194.675,276.25 Q195.9719,277.5781 196.8,277.5781 Q198.8313,277.5781 201.0188,275.0156 L201.675,275.9531 Z "/><text fill="#000000" font-family="sans-serif" font-size="12" lengthAdjust="spacingAndGlyphs" textLength="53" x="215.45" y="277.9092">CtbcBank</text><line style="stroke: #A80036; stroke-width: 1.5;" x1="166" x2="288" y1="288" y2="288"/><line style="stroke: #A80036; stroke-width: 1.5;" x1="166" x2="288" y1="296" y2="296"/><ellipse cx="176" cy="309.3337" fill="#84BE84" rx="3" ry="3" style="stroke: #038048; stroke-width: 1.0;"/><text fill="#000000" font-family="sans-serif" font-size="11" lengthAdjust="spacingAndGlyphs" textLength="98" x="185" y="313.2505">VerifyCardNumber()</text><!--class Nccc--><rect fill="#FEFECE" filter="url(#f1igli3tsqi9h3)" height="63.6675" id="Nccc" style="stroke: #A80036; stroke-width: 1.5;" width="124" x="324" y="256"/><ellipse cx="368.25" cy="272" fill="#ADD1B2" rx="11" ry="11" style="stroke: #A80036; stroke-width: 1.0;"/><path d="M372.375,275.9531 Q372.0156,276.5781 371.1719,277.2188 Q369.7656,278.2344 367.0313,278.2344 Q364.8438,278.2344 363.375,276.7656 Q361.6719,275.0625 361.6719,271.875 Q361.6719,268.9375 363.3594,267.1406 Q364.9063,265.5156 367.125,265.5156 Q369,265.5156 369.9844,265.8125 Q370.9688,266.1094 370.9688,266.1094 Q370.9688,266.1094 370.9688,265.5469 L371.9844,265.4531 L372.1406,269.5156 L370.8125,269.6406 Q370,266.0469 367.2656,266.0469 Q367.2656,266.0469 366.6719,266.3281 Q365.7656,266.6719 365.25,267.2188 Q363.875,268.7656 363.8594,271.9063 Q363.8438,274.6875 365.375,276.25 Q366.6719,277.5781 367.5,277.5781 Q369.5313,277.5781 371.7188,275.0156 L372.375,275.9531 Z "/><text fill="#000000" font-family="sans-serif" font-size="12" lengthAdjust="spacingAndGlyphs" textLength="27" x="388.75" y="277.9092">Nccc</text><line style="stroke: #A80036; stroke-width: 1.5;" x1="325" x2="447" y1="288" y2="288"/><line style="stroke: #A80036; stroke-width: 1.5;" x1="325" x2="447" y1="296" y2="296"/><ellipse cx="335" cy="309.3337" fill="#84BE84" rx="3" ry="3" style="stroke: #038048; stroke-width: 1.0;"/><text fill="#000000" font-family="sans-serif" font-size="11" lengthAdjust="spacingAndGlyphs" textLength="98" x="344" y="313.2505">VerifyCardNumber()</text><!--link IBankFactory to CathayBankFactory--><path d="M443.351,88.99 C433.52,103.44 422.994,118.913 414.121,131.955 " fill="none" id="IBankFactory-CathayBankFactory" style="stroke: #A80036; stroke-width: 1.0; stroke-dasharray: 7.0,7.0;"/><polygon fill="none" points="437.803,84.7,454.841,72.101,449.378,92.575,437.803,84.7" style="stroke: #A80036; stroke-width: 1.0;"/><!--link IBankFactory to CtbcBankFactory--><path d="M508.649,88.99 C518.48,103.44 529.006,118.913 537.879,131.955 " fill="none" id="IBankFactory-CtbcBankFactory" style="stroke: #A80036; stroke-width: 1.0; stroke-dasharray: 7.0,7.0;"/><polygon fill="none" points="502.622,92.575,497.159,72.101,514.197,84.7,502.622,92.575" style="stroke: #A80036; stroke-width: 1.0;"/><!--link IBankFactory to NcccFactory--><path d="M551.746,79.828 C585.532,97.147 624.703,117.226 656.092,133.316 " fill="none" id="IBankFactory-NcccFactory" style="stroke: #A80036; stroke-width: 1.0; stroke-dasharray: 7.0,7.0;"/><polygon fill="none" points="548.218,85.885,533.613,70.533,554.604,73.427,548.218,85.885" style="stroke: #A80036; stroke-width: 1.0;"/><!--link IBankFactory to IBank--><path d="M418.249,69.296 C381.112,87.491 332.726,111.199 293.915,130.214 " fill="none" id="IBankFactory-IBank" style="stroke: #A80036; stroke-width: 1.0; stroke-dasharray: 7.0,7.0;"/><polygon fill="#A80036" points="289.231,132.509,299.073,132.141,293.721,130.309,295.553,124.957,289.231,132.509" style="stroke: #A80036; stroke-width: 1.0;"/><!--link IBank to CathayBank--><path d="M170.306,208.501 C149.868,224.1834 127.232,241.5515 108.46,255.9554 " fill="none" id="IBank-CathayBank" style="stroke: #A80036; stroke-width: 1.0; stroke-dasharray: 7.0,7.0;"/><polygon fill="none" points="166.338,202.723,186.466,196.101,174.86,213.83,166.338,202.723" style="stroke: #A80036; stroke-width: 1.0;"/><!--link IBank to CtbcBank--><path d="M227,216.341 C227,229.8065 227,243.9163 227,255.9554 " fill="none" id="IBank-CtbcBank" style="stroke: #A80036; stroke-width: 1.0; stroke-dasharray: 7.0,7.0;"/><polygon fill="none" points="220,216.101,227,196.101,234,216.101,220,216.101" style="stroke: #A80036; stroke-width: 1.0;"/><!--link IBank to Nccc--><path d="M283.694,208.501 C304.132,224.1834 326.768,241.5515 345.54,255.9554 " fill="none" id="IBank-Nccc" style="stroke: #A80036; stroke-width: 1.0; stroke-dasharray: 7.0,7.0;"/><polygon fill="none" points="279.14,213.83,267.534,196.101,287.662,202.723,279.14,213.83" style="stroke: #A80036; stroke-width: 1.0;"/><!--
@startuml Homework05ClassDiagram

interface IBank {
    +VerifyCardNumber()
}

interface IBankFactory{
    +VerifyCreditCard()
}

class CathayBankFactory{
    +VerifyCreditCard()
}

class CtbcBankFactory{
    +VerifyCreditCard()
}

class NcccFactory{
    +VerifyCreditCard()
}

class CathayBank{
    +VerifyCardNumber()
}

class CtbcBank{
    +VerifyCardNumber()
}

class Nccc{
    +VerifyCardNumber()
}

IBankFactory <|.. CathayBankFactory
IBankFactory <|.. CtbcBankFactory
IBankFactory <|.. NcccFactory
IBankFactory ..> IBank
IBank <|.. CathayBank
IBank <|.. CtbcBank
IBank <|.. Nccc

@enduml

PlantUML version 1.2017.20(Tue Dec 12 00:57:05 CST 2017)
(GPL source distribution)
Java Runtime: Java(TM) SE Runtime Environment
JVM: Java HotSpot(TM) 64-Bit Server VM
Java Version: 9.0.1+11
Operating System: Windows 10
OS Version: 10.0
Default Encoding: MS950
Language: zh
Country: TW
--></g></svg>